<svg width="40" height="40" viewBox="0 0 40 40" fill="none" xmlns="http://www.w3.org/2000/svg">
<path d="M17.5784 17.1265L17.5774 17.1128C17.5284 16.2044 17.2581 15.6783 16.9846 15.3022C16.9213 15.2153 16.8593 15.1375 16.8098 15.0757C16.7571 15.0098 16.7208 14.9645 16.6926 14.9233C16.6444 14.8529 16.6464 14.8344 16.6467 14.8306C16.6467 14.8347 16.6465 14.824 16.6594 14.811C16.6648 14.8056 16.6727 14.8 16.6838 14.7954C16.6947 14.7909 16.7138 14.7857 16.7434 14.7856H20.429C20.498 14.7857 20.5344 14.7944 20.55 14.7993C20.5551 14.8092 20.5654 14.8309 20.5745 14.8726C20.5882 14.9356 20.5979 15.0272 20.5979 15.1567V19.8481C20.598 20.4344 20.8793 21.0249 21.4631 21.0249C22.0022 21.0248 22.3944 20.6723 22.9114 20.147L22.929 20.1274C23.8131 19.1307 24.5559 17.8794 25.0725 16.8931C25.3324 16.3969 25.5377 15.9609 25.679 15.6489C25.7496 15.4929 25.8049 15.3678 25.842 15.2808C25.8605 15.2375 25.8743 15.2035 25.884 15.1802C25.8889 15.1685 25.8932 15.1591 25.8958 15.1528L25.8967 15.1509C25.9511 15.0238 26.0121 14.9399 26.0823 14.8862C26.1456 14.8378 26.2524 14.7857 26.4553 14.7856H28.801C28.9562 14.7857 29.0296 14.8083 29.0598 14.8218C29.0599 14.8236 29.0607 14.8255 29.0608 14.8276C29.0621 14.8622 29.0565 14.9226 29.0295 15.0132L29.0237 15.0317L29.0198 15.0513C28.962 15.3196 28.7609 15.7764 28.4504 16.353C28.1486 16.9136 27.7705 17.5399 27.3977 18.1294C27.0256 18.7178 26.6615 19.2639 26.3909 19.6636C26.2557 19.8632 26.1445 20.0266 26.0667 20.1392C26.0277 20.1955 25.9965 20.2395 25.9758 20.269C25.9657 20.2836 25.9576 20.2948 25.9524 20.3022C25.9499 20.3059 25.9478 20.3092 25.9465 20.311L25.9456 20.313L25.9358 20.3257L25.928 20.3394C25.8192 20.5164 25.657 20.771 25.6331 21.0688C25.6064 21.4014 25.7493 21.6834 25.9465 21.9438V21.9448C25.9477 21.9465 25.9492 21.948 25.9504 21.9497C25.9528 21.9529 25.9549 21.9563 25.9573 21.9595V21.9585C26.1168 22.1778 26.418 22.4739 26.6975 22.7505C27.005 23.0548 27.3299 23.3768 27.5862 23.6821L27.594 23.6909C28.0943 24.2591 28.5241 24.7737 28.8528 25.2231C29.1852 25.6776 29.3859 26.0297 29.467 26.2808C29.5003 26.3985 29.5032 26.4741 29.4983 26.5161C29.494 26.5528 29.485 26.5634 29.4836 26.5649C29.4781 26.5714 29.4045 26.6421 29.134 26.6421H26.7903C26.6422 26.6421 26.5391 26.6136 26.4417 26.562C26.3332 26.5045 26.2088 26.4056 26.0344 26.229C25.858 26.0503 25.6611 25.8243 25.3918 25.5229C25.1273 25.2269 24.8063 24.8741 24.4006 24.4644L24.3938 24.4575C22.9951 23.0967 22.2717 22.7857 21.7112 22.7856C21.4646 22.7856 21.088 22.8105 20.8362 23.1265C20.7207 23.2714 20.6654 23.438 20.636 23.5913C20.6067 23.7442 20.5969 23.9153 20.5969 24.0972V26.2212C20.5969 26.4708 20.5554 26.4753 20.5383 26.4868C20.4445 26.5505 20.1675 26.6431 19.4231 26.6431C17.1393 26.6429 14.5512 25.2336 12.6838 22.5259L12.6809 22.521C11.2497 20.4948 10.3428 18.7219 9.79517 17.3862C9.52123 16.7181 9.33775 16.1608 9.22388 15.7388C9.1063 15.303 9.07158 15.0437 9.07153 14.9556C9.07153 14.831 9.09723 14.8208 9.08423 14.8345C9.06952 14.8496 9.11114 14.7867 9.37524 14.7866H11.72C11.9416 14.7866 12.0079 14.833 12.0442 14.8667C12.0908 14.9101 12.147 14.9926 12.218 15.1646L12.2942 15.3687C12.8799 17.0911 13.667 18.7072 14.4143 19.8999C14.787 20.4946 15.1586 20.9982 15.5002 21.3599C15.6706 21.5402 15.845 21.6974 16.0188 21.813C16.1831 21.9222 16.3995 22.0297 16.6428 22.0298C16.75 22.0298 16.8971 22.0182 17.0452 21.9507C17.2069 21.8768 17.3289 21.7555 17.4114 21.605C17.551 21.3501 17.5784 21.0034 17.5784 20.6265V17.1265Z" fill="#FEFBF7" stroke="#FEFBF7"/>
<circle cx="20" cy="20" r="19.5" stroke="#FEFBF7"/>
</svg>
