<svg width="344" height="384" viewBox="0 0 344 384" fill="none" xmlns="http://www.w3.org/2000/svg">
<g opacity="0.15">
<rect width="229.852" height="174.491" transform="translate(156.247) rotate(35.2835)" fill="#FEFBF7"/>
<path d="M5.35476 381.35C10.3868 374.459 15.3842 367.544 20.4739 360.694C25.0291 354.575 29.6386 348.477 34.3209 342.448C37.3906 338.501 40.5493 334.601 43.8534 330.838C48.673 325.374 53.947 320.37 59.5035 315.653C65.2288 310.795 70.8746 305.829 76.261 300.593C79.8442 297.097 83.2326 293.411 86.5483 289.656C89.6365 286.173 92.4292 282.447 95.2946 278.79C97.3831 276.107 99.1135 273.172 100.959 270.318C101.464 269.532 101.749 268.59 102.042 267.687C103.608 262.729 104.859 257.704 104.699 252.443C104.38 241.921 102.154 231.888 97.2374 222.499C92.898 214.228 87.8094 206.502 81.5728 199.541C79.1132 196.796 76.5045 194.187 73.629 191.858C72.7459 191.146 71.9676 190.335 71.0566 189.639C65.9818 185.788 60.364 182.974 54.4327 180.701C52.0982 179.811 49.7165 179.062 47.3185 178.336C42.9343 177.036 38.4117 176.765 33.8808 176.506C28.6442 176.215 23.3895 176.292 18.16 175.746C14.6139 175.369 11.05 175.066 7.64151 173.833C5.72556 173.135 4.00042 172.071 2.22481 171.126C1.46646 170.728 0.910939 170.093 0.394921 169.45C-0.382484 168.467 0.0274247 167.422 1.27668 167.249C1.801 167.169 2.34896 167.228 2.882 167.258C5.20996 167.398 7.52101 167.438 9.84931 167.283C13.8021 167.012 17.6075 166.117 21.3934 164.931C33.3967 161.17 45.6589 158.685 58.1961 157.746C65.2219 157.223 72.2673 157.407 79.1557 159.283C83.1803 160.38 87.1627 161.586 90.9698 163.31C94.5362 164.932 97.7282 167.035 100.582 169.713C106.479 175.22 110.835 181.752 113.751 189.24C116.062 195.209 116.945 201.432 116.905 207.834C116.867 213.839 116.005 219.711 114.72 225.544C113.156 232.654 110.973 239.584 109.312 246.659C108.28 251.008 107.522 255.411 106.786 259.83C106.743 260.112 106.743 260.406 106.726 261.018C108.161 259.087 109.066 257.197 110.12 255.412C111.64 252.848 113.06 250.23 114.502 247.628C116.292 244.388 118.062 241.152 119.833 237.915C121.971 233.986 124.079 230.052 126.206 226.115C128.027 222.758 129.851 219.421 131.706 216.089C133.074 213.642 134.464 211.212 135.866 208.789C137.681 205.636 139.496 202.483 141.335 199.347C143.119 196.311 144.949 193.308 146.737 190.292C148.714 186.959 150.668 183.609 152.656 180.285C153.785 178.397 154.933 176.505 156.072 174.625C157.615 172.077 159.158 169.529 160.69 166.973C160.817 166.768 160.902 166.551 161.052 166.241C160.655 165.111 160.252 163.942 159.847 162.823C159.285 162.443 158.749 162.636 158.222 162.696C148.97 163.793 140.193 162.21 131.823 158.142C128.445 156.497 125.118 154.732 122.131 152.462C115.038 147.079 109.339 140.534 105.785 132.281C103.927 127.951 103.104 123.382 102.92 118.693C102.71 113.258 102.982 107.852 104.167 102.503C104.487 101.048 104.923 99.6233 105.479 98.2491C105.77 97.5192 106.22 96.884 106.696 96.2848C107.298 95.5321 107.577 95.5045 108.527 95.951C108.724 96.0389 108.863 96.2587 109.189 96.1422C109.181 95.8593 109.161 95.5682 109.142 95.2772C108.31 87.6344 109.696 80.3123 112.492 73.2257C114.092 69.1758 116.118 65.3575 118.381 61.6205C120.517 58.0879 122.921 54.763 125.499 51.5607C129.224 46.9339 132.238 41.8909 134.076 36.2066C134.29 35.5609 134.558 34.9874 135.163 34.5488C136.2 34.5031 136.754 35.1898 137.084 36.0469C137.428 36.9319 137.669 37.865 137.859 38.7968C138.82 43.3419 139.773 47.8986 140.698 52.4703C141.594 56.9351 142.855 61.2767 144.913 65.3499C145.051 65.6206 145.169 65.8948 145.323 66.1425C145.379 66.2343 145.491 66.2963 145.587 66.3814C146.179 66.1074 146.373 65.5161 146.607 64.9887C147.202 63.6588 148.088 62.5528 149.052 61.4844C150.887 59.4548 152.725 57.445 154.705 55.553C157.011 53.3716 159.476 51.4067 162.145 49.7419C168.365 45.8754 174.578 41.9695 180.553 37.739C181.322 37.1911 182.152 36.7039 182.989 36.2561C183.67 35.906 184.397 35.5886 185.144 35.3896C187.671 34.7336 189.12 35.8456 189.107 38.4362C189.097 39.6254 188.978 40.8233 188.843 41.9934C188.517 44.9521 188.328 47.9382 188.269 50.9122C188.201 54.0704 187.948 57.2197 187.434 60.3224C187.81 60.5016 188.058 60.3475 188.29 60.1656C194.823 55.3421 202.241 53.0164 210.251 52.3756C212.986 52.1612 215.729 52.0569 218.472 51.9526C220.024 51.8898 221.569 51.9602 223.087 52.4107C224.906 52.952 225.505 53.8442 225.257 55.7137C225.075 57.0238 224.582 58.2348 223.937 59.3907C223.384 60.3685 222.854 61.3626 222.283 62.4145C223.049 62.8009 223.76 62.6794 224.435 62.655C226.399 62.6232 228.366 62.4895 230.338 62.4462C231.115 62.4247 231.897 62.4229 232.655 62.5264C234.642 62.8054 235.713 63.9619 235.885 65.9727C235.944 66.6731 235.916 67.3985 235.912 68.0893C236.408 68.1973 236.808 68.0476 237.189 67.9011C240.738 66.6337 244.41 66.4414 248.129 66.5253C248.843 66.5451 249.555 66.616 250.241 66.8235C251.759 67.274 252.437 68.0309 252.574 69.601C252.613 70.0104 252.594 70.4299 252.574 70.8494C252.149 78.3827 250.958 85.773 248.307 92.8753C248.201 93.1472 248.107 93.4272 248.029 93.6841C248.445 94.1 248.953 94.0435 249.406 94.1386C252.155 94.6626 254.882 95.2919 257.537 96.2177C261.779 97.6939 266.138 98.6121 270.532 99.4331C272.817 99.8539 275.111 100.212 277.359 100.832C278.457 101.141 279.469 101.597 280.413 102.248C281.631 103.075 281.918 104.162 281.602 105.516C281.592 105.578 281.571 105.633 281.55 105.687C279.049 112.601 278.128 119.905 276.442 127.014C276.194 128.052 275.894 129.088 275.657 130.133C275.541 130.64 275.268 131.123 275.422 131.787C276.194 131.848 276.954 131.9 277.706 131.964C280.799 132.247 283.824 132.896 286.85 133.616C291.19 134.66 295.547 135.68 299.892 136.692C301.234 137 302.554 137.363 303.812 137.888C306.335 138.928 307.068 141.076 305.649 143.4C303.222 147.368 300.807 151.344 297.911 154.997C293.457 160.581 288.336 165.416 282.127 169.047C280.579 169.962 278.934 170.67 277.264 171.291C276.49 171.576 275.72 171.88 274.939 172.176C274.938 172.765 275.406 172.888 275.714 173.089C279.35 175.593 282.677 178.484 286.142 181.231C288.846 183.386 291.525 185.577 294.326 187.594C295.97 188.774 297.447 190.166 298.826 191.645C299.15 191.995 299.45 192.381 299.662 192.791C300.315 193.998 300.072 195.126 298.985 195.952C298.564 196.278 298.093 196.551 297.604 196.777C294.436 198.192 291.575 200.154 288.65 201.985C286.433 203.379 284.192 204.758 281.959 206.125C276.932 209.188 271.487 211.298 265.849 212.872C258.914 214.811 251.847 215.808 244.634 215.591C241.767 215.504 238.926 215.158 236.115 214.624C235.599 214.52 235.095 214.301 234.546 214.416C234.361 214.874 234.737 215.053 234.97 215.287C237.952 218.299 240.568 221.606 243.097 224.99C246.548 229.616 250.421 233.916 254.041 238.402C255.187 239.82 256.112 241.306 256.367 243.15C256.448 243.745 256.502 244.355 256.356 244.928C255.897 246.753 254.965 247.237 253.591 247.097C253.177 247.046 252.765 247.015 252.352 246.913C246.538 245.503 240.569 245.144 234.644 244.505C230.319 244.027 225.968 243.808 221.662 243.084C216.457 242.209 211.53 240.525 206.882 237.981C197.014 232.576 190.401 224.482 186.611 213.965C186.038 212.399 185.572 210.804 185.05 209.239C184.256 208.867 183.504 208.509 182.761 208.139C179.71 206.621 177.349 204.274 175.101 201.817C170.115 196.348 167.027 189.933 165.623 182.683C165.2 180.512 165.066 178.302 165.245 176.089C165.301 175.349 165.209 174.695 164.823 174.04C164.163 172.915 163.571 171.768 162.943 170.647C162.396 170.832 162.232 171.236 162.018 171.587C160.157 174.707 158.318 177.844 156.469 180.972C154.706 183.953 152.951 186.923 151.188 189.905C149.255 193.2 147.33 196.483 145.397 199.778C143.803 202.497 142.176 205.212 140.616 207.956C138.45 211.727 136.319 215.522 134.199 219.326C132.005 223.285 129.833 227.26 127.662 231.235C125.502 235.219 123.384 239.215 121.213 243.19C119.413 246.493 117.587 249.759 115.753 253.037C114.151 255.89 112.517 258.737 110.883 261.585C110.087 262.98 109.259 264.37 108.416 265.733C103.991 272.966 99.3382 280.056 94.0236 286.66C87.2975 295.039 79.9091 302.811 71.8286 309.919C66.8184 314.329 61.7472 318.679 56.8016 323.17C51.8117 327.699 47.1539 332.567 42.9288 337.827C39.9321 341.548 37.036 345.322 34.0739 349.067C31.2181 352.662 28.6891 356.506 25.7178 360.019C25.3807 360.422 25.1048 360.885 24.6471 361.532C29.2559 357.86 33.6898 354.411 37.7216 350.453C44.0052 344.291 50.1748 337.997 56.7559 332.151C62.508 327.035 68.6505 322.42 75.3143 318.538C82.928 314.098 91.0353 310.822 99.4383 308.206C111.813 304.361 124.373 301.186 137.148 299.029C147.269 297.316 157.311 295.201 167.395 293.271C170.382 292.698 173.36 292.067 176.341 291.455C178.157 291.093 179.996 290.87 181.85 290.847C182.67 290.838 183.519 290.815 184.283 291.303C184.527 292.134 184.115 292.692 183.64 293.24C182.071 295.041 180.425 296.754 178.719 298.407C174.608 302.379 170.494 306.331 166.651 310.562C163.763 313.736 160.934 316.951 158.116 320.174C152.873 326.188 147.339 331.926 140.837 336.633C138.697 338.187 136.375 339.386 133.945 340.371C126.147 343.554 117.977 345.105 109.652 346.216C100.522 347.434 91.3378 347.504 82.1549 347.818C74.697 348.07 67.2584 348.613 59.9174 350.022C50.8559 351.756 42.0512 354.279 33.785 358.465C28.939 360.929 24.4356 363.913 20.4224 367.625C19.931 368.075 19.5089 368.573 19.1098 369.088C15.5075 373.836 11.9085 378.604 8.51737 383.519C8.22863 383.314 7.92832 383.102 7.63958 382.897C7.86699 382.625 8.1175 382.369 8.3218 382.08C14.075 374.244 19.7358 366.342 25.6045 358.587C30.9679 351.497 36.2884 344.395 41.8862 337.488C47.1993 330.935 53.051 324.919 59.438 319.42C69.9753 310.358 80.4399 301.228 89.4471 290.58C93.1122 286.258 96.6354 281.818 99.8433 277.138C103.244 272.16 106.452 267.064 109.49 261.864C111.604 258.264 113.694 254.648 115.731 251.011C118.032 246.902 120.267 242.764 122.51 238.614C125.125 233.791 127.686 228.948 130.313 224.133C132.654 219.845 135.038 215.569 137.449 211.33C139.624 207.496 141.877 203.7 144.087 199.891C146.508 195.71 148.92 191.542 151.364 187.378C153.107 184.4 154.951 181.475 156.637 178.456C157.368 177.154 158.203 175.925 158.923 174.614C159.415 173.697 159.975 172.759 159.449 171.641C159.002 171.758 158.893 172.132 158.678 172.413C157.617 173.863 156.791 175.446 155.866 176.974C153.79 180.446 151.638 183.88 149.555 187.363C146.874 191.862 144.22 196.397 141.562 200.912C139.213 204.917 136.809 208.902 134.518 212.948C131.59 218.139 128.763 223.383 125.893 228.615C122.142 235.459 118.383 242.315 114.644 249.167C110.896 256.031 106.933 262.759 102.741 269.343C98.764 275.577 94.5013 281.625 89.7385 287.303C86.2061 291.511 82.5366 295.57 78.6673 299.471C73.1622 305.021 67.2952 310.178 61.3487 315.225C53.4605 321.915 46.119 329.13 39.6332 337.194C34.2533 343.891 29.0615 350.738 23.9125 357.598C18.3237 365.031 12.8653 372.573 7.36064 380.083C6.94046 380.652 6.5699 381.274 6.17282 381.86C5.93224 381.759 5.6435 381.554 5.35476 381.35ZM199.082 152.177C199.5 152.248 199.756 152.082 200.019 151.956C203.056 150.431 205.966 148.694 208.802 146.818C214.517 143.028 219.421 138.351 223.33 132.729C225.505 129.605 227.202 126.178 228.779 122.701C231.423 116.859 233.353 110.824 234.042 104.412C234.861 96.6899 234.924 88.9346 234.825 81.1865C234.772 76.486 234.4 71.7688 234.802 67.0613C234.833 66.65 234.822 66.2257 234.762 65.8198C234.544 64.4868 233.895 63.8367 232.55 63.6305C231.663 63.4881 230.767 63.5299 229.874 63.5914C226.173 63.8496 222.495 63.8297 218.795 63.6208C215.463 63.43 212.119 63.282 208.793 63.1816C201.03 62.9578 193.422 64.1084 186.072 66.5341C176.06 69.8319 167.517 75.3649 160.979 83.7724C159.366 85.8552 157.989 88.0702 156.844 90.4487C155.859 92.5255 155.145 94.6373 156.098 96.9407C156.216 97.2148 156.227 97.5174 156.297 97.8099C158.988 109.732 160.195 121.818 160.205 134.027C160.21 135.538 160.175 137.057 160.157 138.846C161.331 136.869 162.137 134.995 163.39 133.421C165.94 130.233 168.992 127.609 172.46 125.452C174.082 124.434 175.839 124.082 177.775 124.309C180.44 124.634 182.626 125.782 184.427 127.768C186.054 129.56 187.237 131.611 188.229 133.786C189.043 135.575 189.781 137.397 190.539 139.216C192.599 144.071 195.517 148.372 199.082 152.177ZM202.865 194.719C203.373 195.2 203.876 195.175 204.324 195.301C210.541 196.926 216.33 199.498 221.556 203.282C222.726 204.127 223.722 205.144 224.872 205.993C227.184 207.698 229.213 209.706 231.25 211.702C232.09 212.522 233.017 213.074 234.157 213.325C237.95 214.137 241.778 214.68 245.671 214.713C255.899 214.809 265.667 212.639 275.081 208.693C279.049 207.029 282.67 204.704 286.317 202.465C290.019 200.197 293.582 197.709 297.532 195.825C299.362 194.953 299.49 194.038 298.199 192.483C297.173 191.238 295.958 190.187 294.702 189.194C293.657 188.368 292.498 187.826 291.23 187.414C288.736 186.602 286.191 185.962 283.603 185.553C277.772 184.633 272.314 182.573 267.074 180.009C262.562 177.787 258.633 174.644 255.106 171.056C252.98 168.892 250.809 166.767 248.281 165.048C245.812 163.37 243.395 161.642 240.941 159.941C240.502 159.63 240.031 159.366 239.546 159.144C235.167 157.103 230.532 156.059 225.729 155.988C219.188 155.9 212.788 157.057 206.491 158.755C206.171 158.84 205.766 158.848 205.615 159.331C207.022 160.968 208.472 162.617 209.87 164.317C211.852 166.708 213.619 169.258 214.711 172.197C216.763 177.722 216.119 182.969 212.889 187.876C210.913 190.864 208.062 192.763 204.738 193.982C204.132 194.177 203.463 194.241 202.865 194.719ZM254.935 160.691C255.451 160.623 255.88 160.164 256.349 159.82C259.493 157.434 262.275 154.653 264.773 151.637C268.181 147.532 270.771 142.916 272.413 137.804C274.149 132.411 275.569 126.951 276.763 121.417C277.887 116.129 278.661 110.749 280.655 105.678C281.242 104.187 280.683 103.288 279.176 102.551C277.041 101.526 274.742 101.199 272.461 100.798C267.062 99.8547 261.732 98.6662 256.512 96.9311C250.693 95.0144 244.702 94.0509 238.551 94.5864C237.67 94.6561 236.77 94.6782 235.867 95.0966C235.737 96.8242 235.595 98.5437 235.484 100.268C235.174 104.797 234.598 109.26 233.298 113.645C231.334 120.315 228.425 126.558 224.763 132.443C222.199 136.556 218.859 140.051 215.214 143.243C211.339 146.637 207.03 149.395 202.515 151.833C201.734 152.251 200.881 152.549 200.107 153.301C201.672 155.032 203.222 156.736 204.738 158.415C221.764 153.165 238.42 154.049 254.935 160.691ZM183.08 292.341C182.705 291.867 182.274 291.962 181.87 291.97C180.381 291.991 178.886 292.095 177.426 292.396C174.09 293.069 170.757 293.761 167.429 294.422C159.997 295.888 152.581 297.452 145.124 298.779C135.55 300.48 125.981 302.22 116.563 304.655C113.502 305.453 110.42 306.183 107.421 307.164C100.071 309.59 93.2825 313.158 86.8657 317.474C84.4452 319.107 82.1009 320.827 79.9534 322.809C76.3792 326.121 72.881 329.521 69.1581 332.676C63.8834 337.142 58.6997 341.724 52.7251 345.244C48.2072 347.906 43.6214 350.467 39.0737 353.073C35.7629 354.96 32.4257 356.81 29.5255 359.316C29.2961 359.518 28.9051 359.605 28.9991 360.036C36.2439 355.872 43.469 351.712 50.7009 347.591C56.5727 344.24 62.7218 341.503 69.1185 339.321C73.9977 337.643 79.0412 336.688 84.1881 336.396C90.55 336.027 96.7861 336.939 103.001 338.199C111.8 339.971 120.7 340.792 129.678 339.813C133.285 339.418 136.647 338.365 139.689 336.271C144.127 333.207 147.991 329.511 151.767 325.718C155.466 322.009 158.706 317.871 162.237 314.008C164.451 311.589 166.547 309.068 168.838 306.737C172.296 303.221 175.899 299.844 179.427 296.377C180.691 295.105 181.991 293.807 183.08 292.341ZM135.632 35.3312C135.409 35.5724 135.297 35.6321 135.255 35.7408C135.078 36.1873 134.92 36.6305 134.763 37.0736C133.211 41.4704 131.161 45.6177 128.375 49.3834C127.302 50.8257 126.13 52.1632 125.046 53.5973C120.597 59.4445 116.703 65.6329 113.848 72.4352C111.259 78.5932 109.703 84.9801 109.83 91.7083C109.893 94.8035 110.042 97.9246 110.929 100.909C112.475 106.146 115.85 110.146 120.078 113.38C124.621 116.855 129.372 120.061 134.075 123.337C135.7 124.469 137.191 125.767 138.598 127.109C141.948 130.312 145.265 133.56 148.372 137.007C151.719 140.727 154.942 144.55 157.455 148.911C157.496 148.975 157.649 148.979 157.829 149.02C158.162 145.928 158.55 142.857 158.804 139.778C159.205 134.827 159.145 129.915 158.383 124.99C157.532 119.482 155.711 114.364 152.725 109.668C150.837 106.703 148.884 103.779 146.968 100.828C140.821 91.3652 136.363 81.2779 135.015 69.907C134.337 64.2274 134.159 58.6244 135.351 53.0203C135.672 51.5139 135.896 49.9735 136.111 48.4445C136.578 45.1874 136.646 41.9075 136.604 38.6362C136.576 37.5245 136.521 36.3767 135.632 35.3312ZM178.135 187.879C181.723 190.279 185.402 192.207 189.488 193.243C194.754 194.595 199.994 194.733 205.113 192.618C210.431 190.419 213.618 186.503 214.586 180.775C215.038 178.079 214.386 175.693 212.825 173.515C211.801 172.096 210.543 170.86 209.089 169.952C205.292 167.577 201.164 166.112 196.622 166.088C195.362 166.08 194.121 166.12 192.862 166.062C191.859 166.01 190.842 165.88 189.841 165.727C188.633 165.548 187.935 164.794 187.677 163.641C187.558 163.123 187.475 162.579 187.486 162.049C187.506 160.625 187.514 159.192 187.656 157.767C188.354 151.172 187.848 144.661 186.28 138.23C185.441 134.811 184.422 131.474 182.557 128.403C181.303 126.354 179.592 125.49 177.3 125.324C175.799 125.216 174.442 125.59 173.179 126.273C167.244 129.492 163.003 134.187 160.643 140.56C158.389 146.66 158.492 152.834 159.913 159.057C161.233 164.809 163.644 170.121 166.716 175.137C169.753 180.128 173.511 184.469 178.135 187.879ZM0.957783 168.41C1.38782 169.321 2.10446 169.949 2.93549 170.416C4.07978 171.052 5.24043 171.666 6.41403 172.236C9.25396 173.587 12.3056 174.1 15.4182 174.257C20.9886 174.541 26.4914 174.015 31.9857 173.085C38.1621 172.047 44.4013 171.436 50.6647 171.084C57.349 170.701 63.8735 171.401 70.1479 173.899C72.3608 174.789 74.5246 175.748 76.6414 176.847C79.6286 178.406 82.3707 180.312 84.8771 182.502C88.3462 185.511 91.2747 189.039 93.8017 192.89C101.51 204.654 105.376 217.684 106.319 231.611C107.043 242.125 106.336 252.579 104.396 262.94C104.363 263.108 104.374 263.288 104.357 263.484C104.913 263.237 104.962 262.751 105.108 262.3C105.492 261.047 105.623 259.735 105.859 258.446C106.661 254.178 107.346 249.879 108.398 245.649C110.02 239.118 111.951 232.667 113.456 226.106C115.099 218.983 116.013 211.813 115.71 204.475C115.502 199.284 114.494 194.29 112.634 189.472C109.825 182.199 105.593 175.859 99.8966 170.51C97.1764 167.962 94.1456 165.852 90.7606 164.34C80.9037 159.948 70.5708 157.992 59.7793 158.693C46.8486 159.527 34.2611 162.129 21.8893 165.871C19.1496 166.706 16.4363 167.576 13.5679 167.956C10.014 168.422 6.44539 168.566 2.86176 168.266C2.24308 168.21 1.5743 167.979 0.957783 168.41ZM184.33 192.939C184.046 195.251 184.349 197.493 184.612 199.742C185.306 205.815 186.524 211.737 189.088 217.348C193.225 226.394 199.685 233.235 208.513 237.783C213.32 240.249 218.452 241.766 223.817 242.39C227.483 242.818 231.177 243.109 234.848 243.505C240.774 244.145 246.723 244.507 252.54 245.937C252.825 246 253.126 246.039 253.416 246.071C254.755 246.187 255.261 245.765 255.362 244.398C255.455 243.164 255.11 242.036 254.4 241.03C252.357 238.112 249.482 236.199 246.389 234.617C243.963 233.368 241.399 232.386 238.898 231.291C235.527 229.808 232.275 228.061 228.896 226.589C225.421 225.083 222.239 223.161 219.233 220.895C218.325 220.218 217.437 219.538 216.619 218.734C213.535 215.719 210.872 212.379 208.547 208.758C206.089 204.956 203.479 201.272 200.287 198.043C198.752 196.489 197.056 195.358 194.712 195.242C191.478 195.085 188.351 194.311 185.372 193.035C185.104 192.898 184.824 192.804 184.33 192.939ZM159.223 161.55C159.251 161.24 159.302 161.12 159.273 161.013C158.596 158.419 158.112 155.772 157.947 153.09C157.915 152.547 157.832 152.003 157.531 151.547C156.128 149.341 154.74 147.163 152.575 145.544C149.725 143.424 146.559 141.946 143.306 140.615C138.908 138.82 134.305 137.487 130.098 135.203C127.267 133.668 124.591 131.913 122.28 129.619C117.925 125.29 115.015 120.094 112.854 114.404C111.006 109.544 109.741 104.523 108.55 99.4691C108.351 98.5999 108.171 97.7273 107.7 96.8741C106.995 97.3805 106.643 98.0499 106.348 98.7601C105.898 99.8624 105.544 100.999 105.276 102.161C103.966 107.907 103.64 113.708 103.983 119.567C104.281 124.683 105.388 129.609 107.754 134.177C111.329 141.127 116.368 146.842 122.556 151.567C124.974 153.417 127.647 154.857 130.328 156.286C134.451 158.493 138.763 160.141 143.338 161.073C148.573 162.125 153.847 162.338 159.223 161.55ZM270.113 169.125C270.864 169.068 271.252 168.666 271.673 168.341C272.827 167.493 273.829 166.469 274.808 165.429C277.005 163.083 279.229 160.774 281.589 158.614C284.952 155.551 288.719 153.069 292.716 150.923C296.825 148.717 300.654 146.123 304.091 142.956C304.353 142.708 304.641 142.496 304.857 142.216C305.513 141.363 305.446 140.379 304.662 139.651C304.226 139.238 303.724 138.918 303.136 138.745C302.049 138.444 300.972 138.08 299.872 137.822C295.076 136.664 290.255 135.54 285.459 134.382C282.62 133.691 279.767 133.093 276.85 132.832C276.211 132.779 275.546 132.568 274.813 133.089C273.408 138.577 271.366 143.961 268.103 148.793C264.864 153.591 260.711 157.55 256.028 161.326C261.121 163.682 265.668 166.466 270.113 169.125ZM103.344 234.567C103.58 234.11 103.428 233.639 103.37 233.182C102.822 228.495 102.316 223.821 101.677 219.14C100.74 212.307 98.8505 205.718 96.0462 199.418C93.069 192.701 88.5803 187.115 82.9952 182.418C80.0335 179.941 76.7626 177.852 73.188 176.241C66.9697 173.418 60.4923 171.868 53.6179 172.03C44.8818 172.227 36.2616 173.337 27.6607 174.739C27.5029 174.766 27.4457 174.847 27.4891 174.981C27.7307 175.326 28.1314 175.176 28.4489 175.193C30.4675 175.304 32.4977 175.423 34.5259 175.472C41.0859 175.607 47.4044 176.941 53.543 179.239C58.3488 181.045 63.0176 183.118 67.3736 185.854C72.409 189.001 76.7901 192.951 80.8553 197.248C86.0146 202.719 90.4952 208.732 94.3349 215.21C97.8631 221.173 101.025 227.311 102.994 234.008C103.059 234.21 103.044 234.476 103.344 234.567ZM155 92.0738C155.261 91.8769 155.404 91.8219 155.438 91.7248C156.968 87.6768 159.367 84.1397 162.024 80.7512C163.347 79.0529 164.308 77.1325 165.182 75.1861C167.212 70.677 168.786 66.0022 170.209 61.2721C172.539 53.5955 175.775 46.3524 180.405 39.7841C180.553 39.5762 180.802 39.3711 180.624 38.9854C180.056 39.3465 179.505 39.6844 178.969 40.0503C174.437 43.2218 169.784 46.2211 165.045 49.0728C162.653 50.5176 160.318 52.0543 158.13 53.7993C155.091 56.2075 152.423 58.999 149.873 61.8919C148.317 63.6505 146.815 65.5519 146.17 68.0071C149.98 75.6779 152.981 83.6599 155 92.0738ZM198.752 195.362C201.629 197.64 203.823 200.076 205.719 202.736C209.052 207.382 212.74 211.725 216.695 215.858C218.969 218.23 221.348 220.502 224.024 222.379C227.055 224.489 230.286 226.29 233.639 227.848C237.418 229.586 241.213 231.301 245.005 232.996C246.696 233.742 248.306 234.603 249.987 235.412C246.243 230.978 242.775 226.374 239.216 221.828C236.172 217.923 232.648 214.477 229.053 211.083C226.582 208.745 224.001 206.538 221.314 204.481C216.007 200.396 209.956 197.778 203.471 196.188C202.065 195.8 200.637 195.344 198.752 195.362ZM137.657 42.2418C137.26 42.4113 137.335 42.6725 137.333 42.8962C137.329 46.7236 136.788 50.5008 136.11 54.2505C135.548 57.3715 135.233 60.5112 135.451 63.6813C135.968 71.0838 137.923 78.118 141.014 84.8462C143.313 89.8525 146.31 94.4347 149.271 99.0434C151.819 103.012 154.067 107.134 155.654 111.602C156.582 114.235 157.586 116.834 158.41 119.515C158.494 119.054 158.498 118.606 158.463 118.166C158.126 114.478 157.722 110.812 157.117 107.16C156.047 100.735 154.657 94.396 152.943 88.1222C150.985 80.8956 148.134 74.0249 144.779 67.3522C142.514 62.8375 140.886 58.1324 139.908 53.1942C139.296 50.0916 138.683 46.989 138.063 43.898C137.937 43.3409 137.783 42.7988 137.657 42.2418ZM128.886 341.176C124.319 341.359 119.859 341.392 115.387 341.001C110.696 340.576 106.048 339.87 101.387 339.206C91.3653 337.765 81.4977 337.993 71.6366 340.808C61.7674 343.635 52.4111 347.501 43.6052 352.744C43.2541 352.946 42.7332 353.045 42.6556 353.719C43.2814 353.52 43.7922 353.361 44.2996 353.183C49.5515 351.37 54.9274 350.044 60.3735 349.01C68.3687 347.509 76.4552 346.957 84.563 346.766C93.327 346.554 102.066 346.256 110.778 345.089C116.283 344.339 121.731 343.376 127.052 341.785C127.681 341.606 128.28 341.371 128.886 341.176ZM185.386 65.6671C186.328 61.9835 186.86 58.3906 187.071 54.7613C187.362 49.6464 187.45 44.5259 188.062 39.4474C188.113 39.0327 188.113 38.6166 188.093 38.2039C188.018 36.5216 187.275 35.9788 185.629 36.4434C184.197 36.851 183.153 37.8113 182.25 38.9403C180.127 41.5978 178.27 44.4433 176.737 47.4666C174.759 51.3882 173.037 55.4388 171.77 59.655C170.48 63.9766 169.181 68.3097 167.86 72.6265C167.481 73.8486 166.984 75.04 166.445 76.5128C172.224 71.6762 178.364 67.996 185.386 65.6671ZM235.843 94.1263C239.721 93.2999 243.404 93.5829 247.024 93.6837C249.745 86.7521 251.6 77.492 251.688 70.5342C251.687 70.2908 251.697 70.0556 251.657 69.8189C251.53 68.6024 251.021 67.9993 249.815 67.7185C249.359 67.6037 248.877 67.5746 248.395 67.5455C245.703 67.3568 243.032 67.5808 240.374 68.0054C238.793 68.2559 237.257 68.7117 235.645 69.3735C235.798 77.5588 236.058 85.7157 235.843 94.1263ZM290.481 186.121C290.519 186.043 290.548 185.978 290.597 185.908C288.978 184.693 287.274 183.574 285.748 182.252C281.835 178.842 277.718 175.72 273.446 172.767C271.386 171.344 269.395 169.796 267.259 168.528C263.993 166.58 260.664 164.745 257.273 163.021C251.378 160.011 245.194 158.045 238.683 157.008C238.359 156.952 238.013 156.828 237.639 157.014C237.773 157.144 237.882 157.308 238.033 157.363C241.324 158.616 244.377 160.327 247.38 162.157C250.951 164.337 254.183 166.971 257.221 169.831C259.898 172.367 262.661 174.807 265.634 176.997C270.766 180.768 276.45 183.195 282.703 184.326C285.039 184.749 287.377 185.242 289.637 185.991C289.897 186.089 290.2 186.078 290.481 186.121ZM111.083 104.242C110.851 104.841 110.949 105.118 111.027 105.399C112.455 110.534 114.347 115.478 117.073 120.076C118.854 123.07 121.203 125.581 124.015 127.658C126.803 129.718 129.732 131.53 132.838 133.069C135.602 134.453 138.3 135.981 141.065 137.365C144.638 139.149 148.209 140.912 151.494 143.202C151.725 143.366 151.953 143.753 152.449 143.445C152.062 142.963 151.709 142.505 151.326 142.043C148.139 138.194 144.707 134.569 141.178 131.032C137.847 127.705 134.322 124.604 130.391 121.978C127.169 119.819 124.062 117.499 120.881 115.283C118.77 113.807 116.952 112.018 115.226 110.121C113.644 108.412 112.335 106.515 111.083 104.242ZM212.19 169.685C211.77 168.539 211.088 167.641 210.415 166.731C207.46 162.75 204.09 159.135 200.679 155.578C195.292 149.964 190.819 143.817 188.163 136.426C187.522 134.638 186.687 132.903 185.668 131.281C185.458 130.941 185.377 130.468 184.757 130.462C184.858 130.759 184.957 131.037 185.063 131.303C188.161 139.197 189.528 147.358 188.86 155.846C188.729 157.573 188.587 159.293 188.539 161.027C188.506 162.199 188.461 163.415 189.19 164.417C190.148 164.852 191.099 164.953 192.048 164.983C193.413 165.013 194.795 165.02 196.167 164.968C199.373 164.845 202.465 165.351 205.461 166.432C207.817 167.267 210.114 168.234 212.19 169.685ZM37.3795 352.308C37.4012 352.375 37.4344 352.451 37.4561 352.518C38.0746 352.158 38.6815 351.79 39.3 351.431C50.5784 344.8 60.9035 336.871 70.8662 328.425C78.2957 322.139 86.0647 316.353 94.5586 311.599C94.8178 311.453 95.2897 311.423 95.2577 310.881C94.9489 310.974 94.668 311.053 94.3904 311.151C82.4248 315.25 71.5965 321.368 61.8029 329.378C57.7861 332.654 54.0138 336.173 50.3094 339.791C46.0121 343.978 41.6999 348.137 37.3795 352.308ZM183.442 192.259C182.669 191.833 181.979 191.241 181.202 191.089C179.078 190.661 177.392 189.468 175.645 188.336C172.125 186.036 168.976 183.357 166.846 179.631C166.719 179.42 166.606 179.236 166.292 179.361C166.28 179.525 166.228 179.697 166.247 179.866C166.268 180.228 166.298 180.578 166.347 180.925C167.259 187.498 169.8 193.387 173.735 198.702C175.65 201.287 177.971 203.518 180.409 205.608C181.621 206.639 182.996 207.439 184.791 207.964C184.016 202.666 182.855 197.546 183.442 192.259ZM271.3 169.775C273.32 171.672 273.441 171.672 275.645 170.909C280.037 169.405 283.908 166.997 287.543 164.162C290.641 161.743 293.377 158.93 295.921 155.947C297.35 154.271 298.752 152.559 299.972 150.736C300.935 149.302 301.797 147.815 302.747 146.373C303.071 145.892 303.434 145.403 303.347 144.718C302.806 144.82 302.601 145.282 302.275 145.571C299.098 148.297 295.563 150.476 291.907 152.482C287.128 155.097 282.936 158.475 279.099 162.329C276.587 164.85 274.346 167.649 271.3 169.775ZM217.752 53.2634C217.408 53.0889 217.312 53.0038 217.21 53.001C211.719 53.1191 206.248 53.4772 200.922 54.9779C196.285 56.2896 192.078 58.5123 188.109 61.1812C187.737 61.4378 187.244 61.6439 187.155 62.1871C186.986 63.1599 186.602 64.1189 186.655 65.196C186.987 65.1188 187.212 65.0701 187.445 65.0099C193.035 63.4538 198.697 62.3119 204.53 62.1758C205.41 62.1571 205.987 61.7335 206.491 61.1194C206.986 60.5169 207.413 59.8653 207.947 59.307C210.642 56.5516 213.759 54.4242 217.752 53.2634ZM220.813 62.6053C221.41 61.7621 221.938 61.1134 222.355 60.4027C223.184 58.9614 223.99 57.5039 224.295 55.8479C224.604 54.2116 223.881 53.3711 222.193 53.3555C221.726 53.3543 221.235 53.3878 220.773 53.477C217.139 54.1296 213.805 55.4619 210.967 57.8561C209.584 59.0267 208.219 60.2449 207.237 62.098C211.865 62.0972 216.299 62.4444 220.813 62.6053Z" fill="#98958B"/>
<path d="M228.993 67.4571C226.611 69.6717 223.969 71.3726 221.327 73.0735C215.634 76.7584 209.859 80.3153 204.208 84.0641C197.517 88.4985 191.162 93.4132 185.26 98.8392C182.287 101.571 179.477 104.488 177.024 107.71C176.087 108.936 175.008 110.044 174.098 111.307C170.83 115.876 168.255 120.813 166.108 126.002C165.604 127.205 165.108 128.396 164.536 129.743C164.251 128.847 164.615 128.186 164.841 127.549C166.009 124.06 167.473 120.693 169.22 117.44C171.302 113.592 173.854 110.059 176.585 106.689C181.882 100.158 188.21 94.6698 194.892 89.5874C200.963 84.9749 207.393 80.9101 213.89 76.9454C218.762 73.9796 223.66 71.0499 228.351 67.8004C228.548 67.645 228.778 67.565 228.993 67.4571Z" fill="#98958B"/>
<path d="M159.525 139.421C159.56 137.73 159.533 136.029 159.662 134.353C160.136 128.171 161.845 122.326 164.459 116.723C166.078 113.258 167.945 109.934 170.236 106.892C175.184 100.341 180.515 94.1296 187.082 89.0872C189.063 87.5603 191.196 86.2613 193.34 84.9705C195.584 83.6119 197.82 82.2647 200.082 80.9537C200.692 80.6056 201.289 80.1786 202.395 79.9385C200.576 81.1127 199.093 82.0568 197.617 83.0403C194.098 85.3685 190.443 87.4966 187.139 90.133C184.53 92.2038 182.203 94.5613 179.856 96.922C177.752 99.0383 175.825 101.297 173.978 103.613C171.691 106.501 169.524 109.491 167.679 112.71C165.814 115.983 164.26 119.355 163.05 122.902C161.472 127.557 160.722 132.364 160.151 137.212C160.068 137.968 160.078 138.738 159.525 139.421Z" fill="#98958B"/>
<path d="M134.745 36.4367C134.458 41.5203 133.947 46.3582 132.856 51.1329C130.894 59.7108 128.227 68.0846 125.164 76.3336C123.062 82.0223 121.303 87.8147 120.226 93.7949C119.502 97.8065 119.402 101.843 119.831 105.891C119.87 106.3 119.89 106.713 119.91 107.126C119.917 107.165 119.865 107.215 119.692 107.508C119.589 106.967 119.508 106.616 119.448 106.261C118.525 99.9227 119.043 93.7032 120.641 87.5019C122.141 81.6826 124.268 76.081 126.22 70.4078C129.131 61.9818 131.743 53.4651 133.163 44.6248C133.533 42.3386 133.828 40.0346 134.187 37.7402C134.256 37.3731 134.135 36.9065 134.745 36.4367Z" fill="#98958B"/>
<path d="M184.686 201.718C184.43 200.635 184.17 199.533 183.92 198.49C178.413 197.504 174.633 194.102 171.202 190.131C174.951 193.651 178.836 196.955 184.205 197.842C185.03 200.228 185.85 202.646 186.709 205.056C189.594 213.129 194.044 220.264 199.997 226.401C202.55 229.039 205.474 231.299 208.634 233.275C212.909 235.954 217.44 237.929 222.257 239.327C222.354 239.361 222.425 239.481 222.64 239.667C221.243 239.511 220.065 239.093 218.882 238.707C217.637 238.311 216.387 237.947 215.16 237.477C210.736 235.768 206.696 233.394 203.046 230.396C197.715 226 193.502 220.661 190.117 214.643C188.101 211.05 186.435 207.306 185.297 203.329C185.128 202.759 184.884 202.222 184.676 201.659L184.686 201.718Z" fill="#98958B"/>
<path d="M213.414 69.3632C211.606 69.886 209.789 70.4204 207.969 70.9351C200.228 73.1536 192.981 76.4145 186.387 81.0557C183.371 83.1858 180.634 85.6339 178.025 88.2425C175.53 90.7405 173.306 93.4659 171.23 96.2777C167.326 101.575 164.342 107.384 162.951 113.905C162.879 114.253 162.786 114.603 162.683 114.946C162.649 115.043 162.526 115.095 162.421 115.194C162.133 114.817 162.32 114.429 162.389 114.062C163.307 109.287 165.044 104.848 167.501 100.641C168.668 98.6247 169.904 96.657 171.302 94.8037C179.859 83.4218 190.784 75.3798 204.497 71.286C206.032 70.8302 207.591 70.3907 209.157 69.9906C210.537 69.6325 211.939 69.3418 213.334 69.0115C213.354 69.1299 213.382 69.2367 213.414 69.3632Z" fill="#98958B"/>
<path d="M257.088 115.468C256.218 116.429 255.385 117.434 254.461 118.323C253.808 118.953 253.289 119.661 252.74 120.364C250.648 123.026 248.414 125.571 246.111 128.066C243.047 131.392 239.857 134.577 236.565 137.638C230.75 143.039 224.526 147.891 217.309 151.329C214.465 152.679 211.564 153.937 208.464 154.863C208.552 154.25 209.042 154.267 209.361 154.111C211.887 152.917 214.454 151.787 216.962 150.546C223.681 147.223 229.622 142.796 235.121 137.743C238.392 134.737 241.561 131.606 244.695 128.451C246.367 126.774 247.852 124.895 249.463 123.158C251.519 120.938 253.272 118.435 255.532 116.394C255.982 116.002 256.451 115.658 257.088 115.468Z" fill="#98958B"/>
<path d="M231.762 63.0548C231.356 63.652 230.8 63.8995 230.351 64.2403C223.687 69.2486 216.34 72.9935 208.678 76.2035C204.066 78.1401 199.516 80.259 195.061 82.514C190.259 84.9399 185.962 88.1219 181.877 91.5924C180.973 92.3563 180.091 93.1365 179.162 93.9351C179.299 92.9575 180.173 92.6049 180.741 92.0711C185.102 88.0155 189.651 84.2321 195.034 81.524C199.509 79.2656 204.009 77.0943 208.636 75.1856C216.086 72.1031 223.189 68.3594 229.923 63.938C230.315 63.678 230.719 63.4262 231.145 63.1907C231.277 63.1276 231.458 63.117 231.762 63.0548Z" fill="#98958B"/>
<path d="M217.61 62.7477C215.81 63.6751 213.939 64.0156 212.051 64.3085C206.157 65.2163 200.33 66.3968 194.655 68.292C188.165 70.459 182.505 73.976 177.52 78.5952C175.183 80.7718 172.959 83.081 170.598 85.4139C171.078 84.3673 171.683 83.5127 172.379 82.7744C174.807 80.1764 177.257 77.5947 179.967 75.2833C184.575 71.3681 189.843 68.6999 195.582 66.885C201.11 65.1466 206.768 63.9849 212.537 63.3524C213.663 63.2307 214.776 63.03 215.898 62.8885C216.457 62.8334 217.031 62.8062 217.61 62.7477Z" fill="#98958B"/>
<path d="M138.847 127.492C137.909 126.76 137.337 126.025 136.761 125.271C133.795 121.404 132.135 116.989 131.259 112.226C130.165 106.252 130.081 100.248 130.9 94.2407C132.074 85.6251 133.271 77.0259 134.476 68.4151C134.54 67.9576 134.475 67.4611 134.889 66.9741C135.119 67.3102 135.032 67.6297 135.003 67.9391C134.273 75.4128 133.477 82.8573 132.333 90.2803C131.525 95.4632 130.956 100.676 131.32 105.943C131.675 111.099 132.564 116.114 134.792 120.828C135.847 123.134 137.417 125.128 138.847 127.492Z" fill="#98958B"/>
<path d="M192.085 133.724C192.514 133.143 192.968 133.187 193.339 133.103C202.277 131.299 210.109 127.186 217.221 121.594C219.931 119.455 222.453 117.115 224.769 114.577C229.401 109.5 232.724 103.653 234.779 97.0994C234.873 96.8194 234.913 96.5182 235.223 96.3738C235.504 96.5896 235.413 96.8894 235.335 97.1463C234.454 100.302 233.295 103.312 231.688 106.196C226.7 115.18 219.383 121.772 210.752 127.086C206.418 129.757 201.786 131.748 196.862 133.048C195.367 133.446 193.845 133.686 192.085 133.724Z" fill="#98958B"/>
<path d="M149.882 77.5315C149.503 76.7437 149.647 76.2216 149.704 75.7246C150.189 71.9774 151.397 68.4818 153.156 65.1154C154.938 61.7144 157.218 58.6647 159.543 55.6478C162.011 52.4542 164.923 49.6616 168.076 47.0916C170.731 44.9318 179.215 38.9927 181.764 37.5209C181.386 38.2759 180.734 38.56 180.244 38.9586C176.571 41.8713 172.686 44.4955 169.066 47.4803C165.615 50.3246 162.509 53.4652 159.756 57.012C157.928 59.3754 156.258 61.8335 154.711 64.3618C152.976 67.2067 151.65 70.2554 150.869 73.5155C150.559 74.7866 150.253 76.0265 149.882 77.5315Z" fill="#98958B"/>
<path d="M225.636 90.7678C224.975 92.3629 223.75 93.2121 222.819 94.2344C218.338 99.0718 213.473 103.498 208.623 107.952C204.2 111.998 199.754 116.028 194.951 119.631C191.559 122.171 188.039 124.499 184.078 126.081C183.299 126.397 182.51 126.827 181.506 126.653C181.792 126.127 182.188 126.009 182.557 125.854C189.069 123.044 194.715 118.91 200.083 114.337C206.464 108.921 212.623 103.278 218.788 97.6043C221.092 95.4739 223.245 93.1666 225.636 90.7678Z" fill="#98958B"/>
<path d="M201.303 195.381C203.377 194.509 205.561 194.581 207.72 194.861C211.859 195.381 215.881 196.458 219.876 197.621C229.21 200.327 238.675 202.309 248.387 203.011C251.717 203.253 255.039 203.385 258.37 203.576C258.954 203.608 259.557 203.514 260.309 203.873C259.861 204.163 259.501 204.133 259.136 204.135C246.102 204.012 233.268 202.504 220.748 198.741C218.361 198.023 215.954 197.359 213.523 196.801C209.522 195.842 205.507 194.976 201.303 195.381Z" fill="#98958B"/>
<path d="M224.753 176.547C227.425 175.612 230.229 175.568 233.005 175.418C243.242 174.863 253.178 176.572 262.956 179.435C267.239 180.681 271.528 181.895 275.851 182.961C276.148 183.033 276.614 182.912 276.781 183.411C275.435 183.551 274.176 183.198 272.904 182.938C269.231 182.177 265.633 181.138 262.029 180.131C253.285 177.67 244.394 176.076 235.278 176.125C232.125 176.147 228.969 176.393 225.805 176.529C225.468 176.515 225.115 176.525 224.753 176.547Z" fill="#98958B"/>
<path d="M130.848 68.5696C129.888 71.9111 128.917 75.1935 128.001 78.497C126.757 82.973 125.702 87.4777 124.977 92.0781C124.254 96.6274 124.024 101.214 124.595 105.795C125.231 110.873 126.533 115.746 129.758 119.883C129.902 120.072 130.002 120.298 130.098 120.505C130.146 120.608 130.147 120.73 130.167 120.848C128.93 120.441 128.315 119.399 127.704 118.377C125.949 115.42 124.892 112.21 124.216 108.855C123.03 102.937 123.242 97.0036 124.267 91.073C125.558 83.6148 127.827 76.4154 130.248 69.2714C130.342 68.9913 130.464 68.6964 130.848 68.5696Z" fill="#98958B"/>
<path d="M221.051 155.936C222.053 155.206 223.026 154.959 223.973 154.624C232.455 151.7 239.975 147.124 246.722 141.238C249.627 138.701 252.672 136.332 255.405 133.621C257.59 131.44 259.751 129.243 261.767 126.908C262.749 125.766 263.724 124.584 265.144 123.63C264.696 124.63 263.783 124.99 263.318 125.77C262.861 126.538 262.239 127.172 261.631 127.835C260.23 129.374 258.884 130.934 257.448 132.449C254.54 135.504 251.405 138.295 248.2 141.036C244.146 144.511 239.993 147.882 235.307 150.511C231.288 152.763 227.073 154.53 222.671 155.852C222.223 156.02 221.76 156.16 221.051 155.936Z" fill="#98958B"/>
<path d="M202.035 120.692C202.913 120.014 203.78 119.328 204.682 118.666C209.146 115.394 213.295 111.761 217.192 107.845C221.574 103.441 225.491 98.6388 228.759 93.3594C231.353 89.18 233.68 84.8127 235.217 80.0936C235.324 79.7708 235.486 79.4691 235.686 79.0389C236.075 79.5915 235.878 80.0414 235.765 80.4465C235.07 82.971 233.975 85.3509 232.858 87.7144C230.422 92.8717 227.083 97.4426 223.629 101.932C221.129 105.171 218.214 108.066 215.215 110.884C211.438 114.433 207.347 117.57 203.035 120.43C202.771 120.607 202.457 120.732 202.167 120.873C202.129 120.828 202.076 120.756 202.035 120.692Z" fill="#98958B"/>
<path d="M186.305 130.674C186.545 130.115 187.08 130.217 187.502 130.134C195.063 128.708 202.213 126.123 208.935 122.404C213.803 119.713 218.16 116.348 222.021 112.338C225.21 109.031 228.249 105.617 230.767 101.766C230.857 101.639 231.016 101.561 231.457 101.231C224.753 111.931 216.224 120.039 205.086 125.296C197.285 128.997 189.095 131.313 186.305 130.674Z" fill="#98958B"/>
<path d="M274.445 108.234C273.272 109.449 272.102 110.441 271.101 111.587C269.69 113.189 268.256 114.774 266.91 116.456C264.56 119.386 262.29 122.373 259.924 125.275C257.97 127.67 255.98 130.041 253.883 132.319C249.082 137.536 243.878 142.294 237.784 146.007C237.077 146.443 236.373 146.898 235.667 147.334C235.463 147.45 235.245 147.538 234.943 147.671C234.996 147.154 235.381 147.028 235.669 146.816C239.124 144.407 242.652 142.068 245.754 139.202C248.059 137.072 250.372 134.93 252.455 132.573C254.19 130.612 256.024 128.755 257.747 126.785C258.874 125.485 259.995 124.147 261.019 122.774C262.801 120.377 264.725 118.099 266.568 115.764C268.554 113.252 270.69 110.846 273.207 108.831C273.44 108.649 273.687 108.495 273.935 108.341C274.027 108.285 274.16 108.292 274.445 108.234Z" fill="#98958B"/>
<path d="M113.805 105.613C113.461 104.555 113.131 103.576 112.896 102.561C111.933 98.534 112.32 94.5091 112.899 90.4818C113.883 83.604 116.175 77.1315 118.935 70.782C120.923 66.2089 123.089 61.7272 125.421 57.3286C125.728 56.7483 125.848 56.0882 126.279 55.578C126.465 55.3634 126.614 55.1045 126.924 54.96C124.728 59.8021 122.49 64.6312 120.36 69.5026C117.061 77.0305 114.311 84.7386 113.367 92.9798C112.914 96.9753 112.843 100.946 113.999 104.849C114.049 105.023 114.059 105.204 114.078 105.373C114.07 105.385 114.006 105.426 113.805 105.613Z" fill="#98958B"/>
<path d="M257.074 196.54C256.378 196.741 255.686 196.615 255 196.581C242.381 195.97 229.83 194.577 217.379 192.405C214.398 191.891 211.432 191.282 208.364 191.503C208.354 190.855 208.861 190.971 209.145 190.912C210.687 190.547 212.233 190.688 213.766 190.923C217.061 191.435 220.359 191.966 223.646 192.489C234.243 194.146 244.891 195.338 255.594 196.134C256.068 196.175 256.529 196.258 256.998 196.33C257.026 196.315 257.042 196.414 257.074 196.54Z" fill="#98958B"/>
<path d="M279.691 110.714C277.72 117.345 274.611 123.43 270.669 129.099C265.695 136.274 259.377 142.116 252.256 147.477C252.496 146.329 253.306 146.018 253.861 145.527C257.197 142.601 260.503 139.619 263.591 136.431C266.04 133.9 268.067 131.036 270.117 128.188C273.685 123.243 276.306 117.8 278.536 112.151C278.663 111.824 278.809 111.495 278.968 111.173C279.075 110.972 279.237 110.792 279.368 110.607C279.477 110.65 279.582 110.672 279.691 110.714Z" fill="#98958B"/>
<path d="M194.235 207.331C195.068 207.574 195.209 208.159 195.495 208.587C198.182 212.603 201.389 216.155 204.856 219.509C209.031 223.555 213.73 226.932 218.627 229.981C224.635 233.713 231.053 236.694 237.837 238.791C238.223 238.908 238.658 238.904 239.021 239.421C236.669 239.022 234.485 238.36 232.392 237.521C228.191 235.865 224.151 233.908 220.192 231.713C216.006 229.375 212.138 226.586 208.396 223.643C203.199 219.55 198.7 214.737 195.191 209.065C194.872 208.562 194.619 208.036 194.235 207.331Z" fill="#98958B"/>
<path d="M213.509 85.5674C212.597 87.1751 211.174 88.3525 209.829 89.5674C205.598 93.3675 201.264 97.043 197.055 100.859C193.54 104.04 190.135 107.333 186.756 110.662C184.645 112.739 182.576 114.88 180.63 117.091C179.085 118.857 177.475 120.595 176.029 122.466C177.535 120.117 179.067 117.805 180.917 115.681C187.332 108.33 194.566 101.854 201.926 95.5186C205.023 92.8568 208.272 90.372 211.278 87.5938C212.023 86.9079 212.76 86.2336 213.509 85.5674Z" fill="#98958B"/>
<path d="M203.25 157.726C203.446 157.154 203.747 157.072 204.038 157.053C207.387 156.875 210.421 155.625 213.381 154.235C220.493 150.896 227.324 147.046 233.325 141.898C235.979 139.617 238.424 137.117 240.883 134.646C241.473 134.058 242.203 133.638 242.693 132.945C242.267 134.429 241.022 135.282 240.071 136.307C237.862 138.695 235.632 141.087 233.105 143.164C226.155 148.871 218.452 153.265 210.075 156.506C207.936 157.35 205.714 157.893 203.25 157.726Z" fill="#98958B"/>
<path d="M143.208 131.567C142.851 130.846 142.467 130.141 142.138 129.405C139.673 123.9 138.314 118.103 137.939 112.118C137.519 105.338 137.461 98.5373 137.76 91.7464C137.878 88.935 138.402 86.1859 138.749 83.4162C138.771 83.1891 138.821 82.9471 139.16 82.7877C139.282 84.0356 139.029 85.2258 138.878 86.4189C138.149 92.5934 138.337 98.7933 138.444 104.987C138.498 107.972 138.58 110.942 138.886 113.915C139.449 119.218 140.696 124.364 142.662 129.326C142.908 129.933 143.135 130.544 143.353 131.166C143.389 131.262 143.367 131.367 143.376 131.477C143.336 131.484 143.272 131.525 143.208 131.567Z" fill="#98958B"/>
<path d="M233.211 230.387C212.213 224.178 197.969 204.479 195.121 195.669C195.641 195.57 195.648 196.025 195.79 196.316C199.145 202.988 203.541 208.925 208.663 214.351C212.582 218.511 217.094 221.86 221.874 224.878C224.378 226.459 227.175 227.503 229.878 228.705C230.944 229.182 232.102 229.481 233.211 230.387Z" fill="#98958B"/>
<path d="M240.146 124.347C240.878 122.699 242.276 121.557 243.551 120.344C247.329 116.743 251.154 113.175 255.468 110.213C260.835 106.523 266.644 103.874 273.061 102.643C274.802 102.315 276.5 101.679 278.437 101.733C278.192 102.374 277.667 102.332 277.268 102.431C274.615 103.118 271.921 103.691 269.308 104.494C262.197 106.655 255.961 110.423 250.312 115.197C247.104 117.918 243.998 120.764 240.843 123.558C240.577 123.786 240.376 124.095 240.146 124.347Z" fill="#98958B"/>
<path d="M235.342 66.2983C234.787 67.7432 234.237 69.1569 233.3 70.3831C232.697 71.1868 232.12 72.0265 231.555 72.8744C229.533 75.8292 227.309 78.6056 224.838 81.1906C222.638 83.5162 220.595 85.9875 218.36 88.2886C215.555 91.1744 212.643 93.9669 209.632 96.6547C207.51 98.5507 205.409 100.443 203.114 102.217C203.099 101.6 203.554 101.35 203.896 101.037C207.571 97.779 211.166 94.4126 214.654 90.953C216.754 88.868 218.655 86.5734 220.716 84.4441C223.323 81.7648 225.784 78.9479 228.222 76.1146C229.922 74.1284 231.327 71.8985 232.859 69.7584C233.699 68.6198 234.516 67.4648 235.342 66.2983Z" fill="#98958B"/>
<path d="M286.32 202.779C280.88 205.568 274.979 206.558 269.049 207.371C259.666 208.652 244.874 207.389 238.856 204.847C239.175 204.518 239.543 204.709 239.879 204.773C242.223 205.184 244.554 205.637 246.906 206.036C259.62 208.204 272.09 207.114 284.38 203.365C285.017 203.175 285.663 202.973 286.32 202.779Z" fill="#98958B"/>
<path d="M260.345 104.668C259.595 105.507 258.828 105.831 258.126 106.236C252.634 109.49 247.596 113.327 243.166 117.922C241.105 120.052 239.177 122.31 237.346 124.654C234.997 127.655 232.729 130.712 230.488 133.806C229.651 134.965 228.408 135.766 227.677 137.19C227.528 136.495 227.943 136.252 228.164 135.94C230.574 132.533 232.939 129.093 235.434 125.763C241.697 117.403 249.071 110.263 258.455 105.428C258.977 105.156 259.462 104.789 260.345 104.668Z" fill="#98958B"/>
<path d="M148.991 130.303C148.768 128.412 148.892 126.523 148.905 124.643C148.968 118.553 148.41 112.507 147.206 106.542C146.353 102.334 144.947 98.2707 143.659 94.1875C143.262 92.9359 142.857 91.6959 142.488 90.4294C142.306 89.7806 142.171 89.1134 141.993 88.3115C142.287 88.4846 142.435 88.5201 142.457 88.5874C143.93 92.9231 145.51 97.2303 146.84 101.621C149.275 109.618 150.052 117.829 149.632 126.163C149.571 127.351 149.46 128.537 149.368 129.72C149.346 129.947 149.37 130.207 148.991 130.303Z" fill="#98958B"/>
<path d="M194.788 92.8937C191.375 96.1984 188.04 99.4895 184.909 102.959C183.605 104.411 182.258 105.849 181.148 107.491C180.174 108.916 179.142 110.301 177.972 111.587C176.92 112.732 176.306 114.187 175.419 115.465C172.809 119.252 170.756 123.328 169.059 127.587C168.869 128.077 168.582 128.532 168.317 129.004C168.28 129.081 168.107 129.08 167.854 129.144C167.779 127.756 168.466 126.613 168.965 125.492C171.111 120.72 173.568 116.097 176.735 111.89C180.918 106.322 185.388 101.01 190.639 96.4056C192.011 95.1758 193.239 93.8085 194.788 92.8937Z" fill="#98958B"/>
<path d="M260.364 100.159C253.978 102.815 247.96 106.028 242.744 110.656C237.536 115.273 233.234 120.618 229.803 126.666C234.14 115.002 248.191 102.69 260.364 100.159Z" fill="#98958B"/>
<path d="M194.346 140.107C201.965 139.015 209.031 136.476 215.302 132.022C221.538 127.594 226.655 122.15 230.193 115.19C230.114 116.209 229.675 117.441 228.957 118.579C224.233 126.087 218.027 131.991 210.136 136.114C205.746 138.398 201.1 139.772 196.206 140.417C195.918 140.457 195.616 140.468 195.316 140.499C195.025 140.518 194.731 140.518 194.448 140.525C194.405 140.391 194.381 140.253 194.346 140.107Z" fill="#98958B"/>
<path d="M108.754 99.0579C109.291 101.361 109.211 103.679 108.938 106C108.318 111.211 107.695 116.403 107.537 121.648C107.414 125.911 107.745 130.097 109.005 134.196C109.877 137.031 111.442 139.473 113.014 141.954C112.449 141.919 112.289 141.459 112.008 141.122C108.387 136.687 106.929 131.496 106.689 125.883C106.502 121.47 106.844 117.067 107.323 112.691C107.845 108.156 108.865 103.678 108.754 99.0579Z" fill="#98958B"/>
<path d="M214.325 171.663C215.336 170.749 216.593 170.443 217.856 170.176C229.239 167.831 240.45 168.276 251.447 172.209C253.511 172.942 255.546 173.74 257.597 174.516C257.935 174.651 258.253 174.789 258.471 175.117C255.327 174.123 252.191 173.117 249.058 172.131C241.633 169.789 234.02 169.255 226.304 169.775C222.43 170.032 218.605 170.636 214.848 171.635C214.682 171.673 214.506 171.653 214.325 171.663Z" fill="#98958B"/>
<path d="M239.731 188.618C243.269 189.007 246.809 189.467 250.373 189.77C257.912 190.408 265.473 190.402 273.03 190.55C278.429 190.661 283.837 190.831 289.266 191.119C288.738 191.473 288.128 191.405 287.559 191.401C280.236 191.315 272.923 191.167 265.594 191.163C257.778 191.162 250.023 190.51 242.309 189.385C241.425 189.262 240.535 189.222 239.731 188.618Z" fill="#98958B"/>
<path d="M124.705 69.2667C123.674 72.3158 122.67 75.2282 121.678 78.1487C119.844 83.5583 118.372 89.0682 117.504 94.7284C116.764 99.5953 116.734 104.462 117.856 109.295C117.901 109.5 118.029 109.712 117.741 110.045C117.11 108.438 116.794 106.827 116.548 105.215C115.758 100.184 116.453 95.2331 117.438 90.3142C118.825 83.3572 121.337 76.7456 123.895 70.1667C123.979 69.9493 124.118 69.7529 124.257 69.5566C124.323 69.4642 124.449 69.4323 124.705 69.2667Z" fill="#98958B"/>
<path d="M155.714 85.7492C155.446 84.5365 155.674 83.3809 155.801 82.2225C156.514 75.7767 158.294 69.6355 161.234 63.8641C162.558 61.2825 164.065 58.761 165.648 56.3279C167.473 53.5287 169.517 50.8847 171.388 48.1181C172.383 46.6384 173.646 45.4173 174.917 44.1846C174.304 45.0509 173.775 45.994 173.055 46.7669C171.788 48.141 170.814 49.6881 169.856 51.2631C168.824 52.9421 167.665 54.5311 166.575 56.1692C162.583 62.2018 159.387 68.606 157.609 75.6502C156.907 78.4296 156.487 81.2523 156.024 84.062C155.949 84.633 155.82 85.1829 155.714 85.7492Z" fill="#98958B"/>
<path d="M215.152 182.302C215.449 181.49 216.222 181.378 216.852 181.148C220.324 179.843 223.919 179.025 227.611 178.656C236.41 177.759 245.055 178.867 253.663 180.59C253.894 180.632 254.114 180.736 254.324 180.832C254.367 180.845 254.372 180.936 254.408 181.031C253.703 181.121 253.034 180.891 252.358 180.793C245.768 179.77 239.159 178.993 232.472 179.184C227.019 179.346 221.702 180.247 216.552 182.062C216.207 182.182 215.871 182.291 215.53 182.379C215.432 182.396 215.32 182.334 215.152 182.302Z" fill="#98958B"/>
<path d="M303.541 139.447C301.712 139.851 299.917 140.158 298.172 140.64C293.362 141.951 288.969 144.215 284.624 146.583C279.036 149.631 273.477 152.735 267.9 155.791C266.76 156.423 265.583 156.959 264.377 157.561C264.358 157.098 264.629 156.96 264.888 156.814C273.298 152.106 281.48 147.01 290.208 142.856C294.067 141.028 298.083 139.762 302.328 139.299C302.698 139.266 303.113 139.022 303.541 139.447Z" fill="#98958B"/>
<path d="M158.043 110.97C157.487 109.502 157.691 107.965 157.91 106.456C158.541 102.257 159.892 98.2906 161.788 94.4844C163.485 91.0574 165.502 87.8396 167.862 84.8471C170.441 81.5938 173.055 78.3651 176.615 75.8575C176.394 76.4637 176.024 76.7911 175.657 77.1381C173.98 78.7245 172.363 80.3715 170.896 82.1757C169.547 83.838 168.208 85.5084 166.978 87.2721C162.106 94.2067 158.981 101.806 158.16 110.29C158.119 110.521 158.077 110.751 158.043 110.97Z" fill="#98958B"/>
<path d="M219.326 228.43C216.022 226.682 212.966 224.606 210.143 222.228C204.271 217.275 199.019 211.739 195.083 205.054C193.782 202.851 192.657 200.546 191.778 198.139C191.337 196.926 190.994 195.695 191.036 194.46C191.438 194.259 191.536 194.415 191.574 194.581C193.16 201.353 196.811 207.022 201.119 212.323C203.704 215.504 206.639 218.361 209.701 221.065C212.417 223.472 215.295 225.7 218.329 227.708C218.656 227.956 218.991 228.193 219.326 228.43Z" fill="#98958B"/>
<path d="M258.855 200.244C271.681 200.931 284.326 199.791 296.791 196.773C296.762 197.255 296.21 197.35 295.829 197.496C294.885 197.851 293.914 198.169 292.927 198.389C282.274 200.731 271.517 201.751 260.623 200.906C260.149 200.865 259.667 200.836 259.201 200.784C259.108 200.769 259.008 200.665 258.919 200.619C258.896 200.481 258.876 200.363 258.855 200.244Z" fill="#98958B"/>
<path d="M291.575 144.672C290.325 145.434 289.045 146.141 287.845 146.955C283.416 149.957 278.995 152.947 274.141 155.25C269.288 157.553 264.351 159.606 259.202 161.127C258.632 161.296 258.083 161.532 257.15 161.357C257.936 161.029 258.465 160.796 259.02 160.6C266.216 157.927 273.349 155.071 279.993 151.193C282.2 149.911 284.317 148.463 286.482 147.118C288.076 146.114 289.709 145.154 291.575 144.672Z" fill="#98958B"/>
<path d="M224.38 118.703C223.514 120.343 222.281 121.204 221.171 122.135C216.632 125.978 211.878 129.512 206.397 131.943C202.077 133.86 197.612 135.294 192.908 135.917C191.777 136.07 190.66 136.129 189.525 136.019C189.235 135.987 188.929 135.979 188.742 135.534C202.808 134.81 214.061 128.093 224.38 118.703Z" fill="#98958B"/>
<path d="M113.015 112.681C113.589 113.78 113.487 114.904 113.468 116.034C113.359 120.377 113.261 124.728 113.679 129.061C114.151 133.954 115.129 138.72 117.56 143.074C118.259 144.314 119.023 145.513 119.803 146.811C119.249 146.713 119.02 146.326 118.755 145.965C115.57 141.649 113.746 136.805 113.053 131.513C112.363 126.242 112.361 120.954 112.834 115.655C112.917 114.657 112.952 113.676 113.015 112.681Z" fill="#98958B"/>
<path d="M218.936 202.502C221.268 203.199 223.14 204.472 225.179 205.412C231.912 208.512 238.894 210.697 246.251 211.639C250.269 212.159 254.285 212.558 258.343 212.604C258.567 212.606 258.806 212.636 259.123 212.653C257.065 213.675 243.66 212.215 238.23 210.851C231.388 209.13 224.928 206.551 218.936 202.502Z" fill="#98958B"/>
<path d="M241.651 157.565C254.003 155.369 263.374 148.74 270.391 138.383C270.357 139.312 269.954 139.98 269.512 140.604C264.246 148.144 257.318 153.502 248.64 156.531C246.4 157.32 244.099 157.928 241.651 157.565Z" fill="#98958B"/>
<path d="M199.824 219.64C192.998 215.815 183.579 198.924 184.479 191.969C185.688 197.193 187.552 202.152 190.17 206.829C192.799 211.515 196.158 215.66 199.824 219.64Z" fill="#98958B"/>
<path d="M214.427 173.625C214.708 174.846 214.419 175.89 214.027 176.861C212.074 181.753 208.642 185.304 203.948 187.651C202.014 188.621 199.963 189.216 197.867 189.656C196.299 189.986 194.713 190.267 193.117 190.49C192.187 190.629 191.241 190.618 190.253 190.422C191.548 190.16 192.831 189.889 194.141 189.655C196.84 189.172 199.5 188.524 202.06 187.527C206.687 185.74 210.097 182.538 212.547 178.292C213.157 177.233 213.571 176.035 213.869 174.807C213.961 174.456 213.837 173.97 214.427 173.625Z" fill="#98958B"/>
<path d="M208.386 177.167C204.735 183.527 199.114 187.159 192.032 188.717C186.877 189.853 180.212 189.574 178.233 188.156C181.776 188.514 185.273 188.839 188.775 188.371C194.126 187.668 199.089 185.945 203.304 182.463C205.188 180.902 206.779 179.046 208.386 177.167Z" fill="#98958B"/>
<path d="M165.74 174.827C169.345 177.031 173.208 177.425 177.174 177.406C180.825 177.39 184.232 176.421 187.462 174.772C189.162 173.912 190.806 172.961 192.479 172.065C193.029 171.778 193.516 171.36 194.193 171.284C194.134 171.711 193.849 171.942 193.557 172.134C190.103 174.37 186.623 176.57 182.583 177.576C177.348 178.899 172.204 178.552 167.214 176.442C166.558 176.169 165.964 175.783 165.74 174.827Z" fill="#98958B"/>
<path d="M166.635 173.12C177.351 175.833 186.303 172.097 194.616 165.396C194.154 166.612 194.169 166.64 193.748 166.965C189.023 170.728 183.882 173.608 177.781 174.49C174.226 175.008 170.767 174.727 167.397 173.538C167.136 173.44 166.882 173.261 166.635 173.12Z" fill="#98958B"/>
<path d="M162.732 149.316C162.637 148.348 163.145 147.875 163.531 147.403C165.759 144.646 168.377 142.391 171.559 140.76C175.955 138.516 180.629 137.593 185.514 137.549C186.001 137.547 186.589 137.426 187.071 138.165C185.749 138.27 184.545 138.354 183.337 138.47C178.046 138.99 173.082 140.469 168.688 143.617C166.846 144.948 165.247 146.52 163.748 148.198C163.468 148.52 163.169 148.845 162.732 149.316Z" fill="#98958B"/>
<path d="M220.004 137.845C215.992 144.469 199.367 150.818 194.084 147.703C199.07 147.661 203.671 146.965 208.116 145.361C212.514 143.776 216.25 141.116 220.004 137.845Z" fill="#98958B"/>
<path d="M173.999 48.5444C170.483 54.6884 168.418 61.1828 166.462 67.7196C165.297 71.6443 164.186 75.59 162.624 79.3898C161.857 81.2567 161.114 83.14 159.937 84.8032C159.806 84.9879 159.705 85.2285 159.319 85.2845C162.871 78.5252 164.638 71.1784 166.914 64.0185C168.102 60.2829 169.406 56.578 171.14 53.0735C171.905 51.552 172.501 49.8767 173.999 48.5444Z" fill="#98958B"/>
<path d="M180.054 140.463C178.114 141.344 176.156 142.176 174.225 143.116C171.117 144.643 168.174 146.426 165.73 148.925C163.103 151.608 161.118 154.658 160.25 158.359C160.085 159.057 159.929 159.744 159.764 160.442C159.751 160.485 159.672 160.498 159.513 160.576C159.435 158.164 160.077 155.983 161.046 153.879C163.025 149.611 166.424 146.695 170.341 144.319C173.379 142.5 176.593 141.117 180.054 140.463Z" fill="#98958B"/>
<path d="M215.77 113.235C219.596 108.906 223.842 105.012 227.135 100.235C230.379 95.5285 233.143 90.5688 235.489 85.0007C235.548 86.1173 235.457 86.8331 235.166 87.4414C233.973 89.9599 232.757 92.462 231.378 94.9007C230.023 97.3048 228.4 99.5012 226.88 101.771C225.258 104.211 223.187 106.281 221.158 108.364C219.488 110.112 217.749 111.81 215.77 113.235Z" fill="#98958B"/>
<path d="M185.035 151.232C183.914 151.861 182.71 152.118 181.58 152.514C177.506 153.912 173.635 155.732 170.021 158.097C167.766 159.569 165.826 161.403 164.036 163.395C163.149 164.379 162.875 165.745 161.93 166.689C162.123 164.849 163.173 162.923 164.749 161.334C169.661 156.352 175.724 153.466 182.366 151.649C183.161 151.432 183.982 151.25 184.792 151.061C184.832 151.054 184.885 151.126 185.035 151.232Z" fill="#98958B"/>
<path d="M128.646 133.482C128.809 139.351 129.936 144.69 132.261 149.733C134.216 153.976 136.962 157.566 141.101 159.922C141.46 160.125 141.799 160.381 142.133 160.618C142.18 160.651 142.19 160.71 142.22 160.766C139.192 159.802 136.847 158.022 134.434 154.893C131.527 151.137 129.944 146.81 128.956 142.229C128.476 140.017 128.213 137.768 128.26 135.497C128.261 134.908 128.211 134.318 128.646 133.482Z" fill="#98958B"/>
<path d="M195.544 225.712C203.357 234.585 213.525 239.371 224.454 243.031C224.155 243.356 223.835 243.147 223.565 243.112C223.204 243.083 222.862 242.979 222.519 242.875C219.125 241.964 215.935 240.521 212.752 239.066C210.263 237.929 207.928 236.502 205.555 235.153C204.632 234.62 203.69 234.041 202.925 233.309C201.449 231.917 199.696 230.868 198.357 229.331C197.337 228.176 196.248 227.093 195.544 225.712Z" fill="#98958B"/>
<path d="M254.025 167.586C249.073 165.937 244.325 164.761 239.461 164.041C234.558 163.327 229.653 163.67 224.466 164.02C230.961 161.527 249.105 163.689 254.025 167.586Z" fill="#98958B"/>
<path d="M155.002 141.819C156.11 131.926 156.333 122.083 154.675 112.226C155.235 112.293 155.15 112.805 155.242 113.165C156.083 116.533 156.368 119.975 156.534 123.439C156.793 128.804 156.644 134.159 155.642 139.446C155.518 140.086 155.374 140.73 155.239 141.362C155.175 141.526 155.077 141.664 155.002 141.819Z" fill="#98958B"/>
<path d="M185.427 144.456C181.065 145.477 176.807 146.693 172.963 149.138C169.154 151.556 166.139 154.813 163.135 158.078C168.303 149.844 175.578 145.026 185.427 144.456Z" fill="#98958B"/>
<path d="M168.552 74.5879C175.492 65.6852 180.985 55.914 185.489 45.5813C183.519 51.5013 177.98 64.6199 168.552 74.5879Z" fill="#98958B"/>
<path d="M176.076 133.765C173.781 134.828 171.43 135.799 169.219 137.111C166.345 138.821 163.694 140.828 161.627 143.456C160.536 144.85 159.734 146.449 159.195 148.166C159.031 148.691 158.998 149.326 158.5 149.736C157.891 149.323 158.178 148.868 158.277 148.435C159.034 145.209 160.772 142.557 163.197 140.355C166.588 137.277 170.537 135.15 174.883 133.736C175.22 133.627 175.578 133.586 175.922 133.517C175.969 133.499 176.063 133.513 176.066 133.533C176.096 133.589 176.087 133.651 176.076 133.765Z" fill="#98958B"/>
<path d="M207.52 162.983C207.608 162.074 208.102 161.939 208.539 161.763C209.821 161.249 211.127 160.873 212.463 160.553C218.741 159.102 225.098 158.938 231.491 159.284C232.886 159.37 234.291 159.393 235.638 159.792C230.885 159.895 226.153 159.528 221.425 160.013C216.739 160.511 212.107 161.202 207.52 162.983Z" fill="#98958B"/>
<path d="M132.028 158.096C129.39 156.68 127.196 154.833 125.445 152.433C121.424 146.97 118.718 140.947 117.716 134.207C117.491 132.713 117.238 131.233 117.441 129.696C117.768 131.488 118.036 133.289 118.403 135.074C119.743 141.655 122.403 147.645 126.658 152.875C128.047 154.586 129.61 156.125 131.448 157.373C131.679 157.537 131.957 157.682 132.028 158.096Z" fill="#98958B"/>
<path d="M184.685 201.647C184.192 202.27 183.577 201.939 183.044 201.786C181.331 201.268 179.776 200.427 178.277 199.436C174.827 197.134 171.899 194.316 169.476 190.955C168.705 189.889 168.045 188.764 167.505 187.567C167.206 186.888 166.864 186.195 166.973 185.405C167.359 185.349 167.386 185.628 167.483 185.835C169.162 189.659 171.732 192.812 174.796 195.586C175.504 196.226 176.141 196.919 176.91 197.498C179.113 199.161 181.458 200.525 184.088 201.364C184.314 201.437 184.494 201.599 184.698 201.726L184.685 201.647Z" fill="#98958B"/>
<path d="M162.839 55.6926C161.888 57.4288 160.938 58.9923 159.979 60.5673C157.487 64.6278 155.337 68.843 154.229 73.519C153.438 76.8417 153.163 80.2179 153.269 83.6205C153.285 84.0135 153.439 84.4339 153.204 84.8396C152.851 84.7984 152.95 84.487 152.943 84.3259C152.324 78.22 153.15 72.3741 155.923 66.814C157.631 63.3952 159.583 60.148 161.712 56.9921C162.003 56.5566 162.244 56.0686 162.839 55.6926Z" fill="#98958B"/>
<path d="M177.635 65.6943C182.606 57.2 186.432 48.2421 188.837 38.4006C189.127 39.6806 188.9 40.6636 188.654 41.5989C187.338 46.544 185.763 51.3915 183.418 55.9546C182.413 57.913 181.452 59.8845 180.413 61.8184C179.679 63.223 178.686 64.479 177.635 65.6943Z" fill="#98958B"/>
<path d="M162.798 168.083C170.586 168.394 177.074 165.029 183.514 161.44C183.513 161.907 183.265 162.061 183.021 162.235C179.434 164.585 175.758 166.767 171.599 167.966C169.24 168.654 166.839 169.035 164.369 168.9C163.789 168.888 163.203 168.907 162.798 168.083Z" fill="#98958B"/>
<path d="M217.934 185.865C228.15 183.578 238.368 184.274 248.565 186.03C247.122 186.257 245.689 186.005 244.26 185.844C237.982 185.163 231.701 184.756 225.38 185.189C222.894 185.371 220.407 185.604 217.934 185.865Z" fill="#98958B"/>
<path d="M271.557 143.594C275.755 138.297 287.039 134.304 292.498 135.359C291.873 135.801 291.305 135.746 290.789 135.814C286.614 136.326 282.603 137.388 278.822 139.254C276.311 140.475 273.991 142.04 271.557 143.594Z" fill="#98958B"/>
<path d="M229.724 121.046C233.868 112.643 239.995 106.163 248.242 101.686C240.661 106.79 234.598 113.35 229.724 121.046Z" fill="#98958B"/>
<path d="M288.064 154.043C279.953 159.137 271.641 163.707 261.83 164.443C266.421 163.393 270.968 162.208 275.289 160.291C279.66 158.375 283.826 156.088 288.064 154.043Z" fill="#98958B"/>
<path d="M217.892 134.755C217.466 135.65 216.775 135.941 216.196 136.294C210.07 140.053 203.47 142.472 196.274 143.065C195.022 143.168 193.773 143.219 192.536 142.934C192.24 142.863 191.95 142.831 191.7 142.377C201.251 142.792 209.734 139.695 217.892 134.755Z" fill="#98958B"/>
<path d="M146.937 161.521C138.114 156.647 133.334 145.57 133.688 138.922C133.817 139.498 133.966 140.072 134.076 140.652C135.166 145.896 137.06 150.789 140.349 155.057C141.5 156.565 142.792 157.947 144.319 159.097C145.276 159.826 145.914 160.884 146.937 161.521Z" fill="#98958B"/>
<path d="M255.728 244.812C254.951 244.488 254.674 243.754 254.148 243.296C251.711 241.155 248.863 239.694 245.989 238.268C242.063 236.321 237.952 234.782 233.878 233.216C233.497 233.068 233.162 232.831 232.841 232.551C235.02 232.949 237.029 233.834 239.078 234.538C242.496 235.709 245.817 237.14 248.974 238.924C250.93 240.03 252.843 241.246 254.516 242.776C255.094 243.306 255.552 243.908 255.728 244.812Z" fill="#98958B"/>
<path d="M245.316 191.236C254.466 192.389 263.69 192.434 273.018 193.09C270.139 193.877 249.139 192.641 245.316 191.236Z" fill="#98958B"/>
<path d="M234.92 71.4253C231.494 77.7367 225.239 85.4258 218.163 91.4079C218.701 89.9861 219.849 89.2211 220.75 88.3158C223.836 85.1787 226.781 81.9238 229.473 78.4381C231.281 76.0781 233.079 73.7099 234.92 71.4253Z" fill="#98958B"/>
<path d="M183.016 181.887C192.541 182.144 199.855 177.734 206.105 171.082C202.624 177.839 190.005 183.816 183.016 181.887Z" fill="#98958B"/>
<path d="M127.933 114.379C124.918 109.699 124.879 94.4698 127.904 87.5977C125.96 96.5176 125.429 105.449 127.933 114.379Z" fill="#98958B"/>
<path d="M152.377 162.407C148.716 160.354 145.839 157.781 143.78 154.348C141.589 150.683 140.16 146.726 139.208 142.585C139.173 142.439 139.201 142.251 139.207 141.926C139.713 142.336 139.727 142.831 139.849 143.247C141.011 147.067 142.402 150.808 144.537 154.208C145.965 156.501 147.708 158.497 149.925 160.066C150.803 160.687 151.628 161.358 152.377 162.407Z" fill="#98958B"/>
<path d="M187.499 36.5185C186.887 37.3847 186.285 38.2591 185.661 39.1172C183.428 42.1995 181.612 45.525 179.931 48.9289C178.778 51.268 177.58 53.5743 176.37 55.8725C176.133 56.3292 175.884 56.8286 175.324 57.1781C176.906 53.375 178.686 49.7815 180.567 46.2419C181.88 43.7738 183.208 41.3337 184.838 39.055C185.549 38.0502 186.341 37.1026 187.499 36.5185Z" fill="#98958B"/>
<path d="M235.612 78.4325C236.787 76.5769 237.885 74.9272 239.265 73.4425C240.839 71.7315 242.512 70.1764 244.425 68.8438C245.394 68.1602 246.428 67.5569 247.531 67.1244C248.13 66.8898 248.763 66.7308 249.515 67.0893C248.523 67.5838 247.479 68.0062 246.533 68.5845C245.475 69.2224 244.427 69.9195 243.493 70.7493C242.615 71.5493 241.669 72.2492 240.814 73.0655C239.926 73.928 239.045 74.83 238.277 75.7939C237.536 76.7429 236.773 77.6247 235.612 78.4325Z" fill="#98958B"/>
<path d="M203.697 166.622C202.033 171.008 193.678 177.229 186.027 178.245C188.201 177.253 190.561 176.687 192.669 175.545C194.758 174.405 196.744 173.141 198.608 171.635C200.471 170.128 202.006 168.302 203.697 166.622Z" fill="#98958B"/>
<path d="M194.192 182.896C194.122 183.557 193.713 183.597 193.411 183.73C189.035 185.799 184.393 186.726 179.576 186.87C178.264 186.912 176.975 186.676 175.7 186.346C175.392 186.267 175.168 186.143 174.921 185.708C181.67 186.654 187.984 185.349 194.192 182.896Z" fill="#98958B"/>
<path d="M146.822 135.303C146.071 127.423 145.203 119.563 144.385 111.705C144.836 111.556 144.812 111.885 144.834 112.074C145.713 118.988 146.644 125.904 147.114 132.857C147.162 133.671 147.21 134.485 146.822 135.303Z" fill="#98958B"/>
<path d="M105.941 110.725C105.454 117.903 104.792 125.061 106.212 132.583C103.889 128.321 104.388 117.01 105.941 110.725Z" fill="#98958B"/>
<path d="M169.484 154.667C171.842 150.771 181.166 146.363 187.971 146.03C187.434 146.569 186.863 146.616 186.373 146.72C184.28 147.18 182.237 147.814 180.212 148.495C176.218 149.829 172.785 152.132 169.484 154.667Z" fill="#98958B"/>
<path d="M243.372 199.029C234.96 198.277 226.524 197.559 218.456 194.779C226.657 196.735 235.021 197.799 243.372 199.029Z" fill="#98958B"/>
<path d="M277.192 121.668C274.651 129.178 269.861 134.992 264.32 140.275C265.144 138.449 266.752 137.23 267.949 135.685C268.564 134.889 269.283 134.167 269.863 133.347C271.742 130.742 273.663 128.149 275.129 125.27C275.606 124.325 276.049 123.356 276.493 122.387C276.63 122.12 276.689 121.815 277.192 121.668Z" fill="#98958B"/>
<path d="M189.262 192.875C197.204 193.434 204.06 191.093 209.967 185.514C209.641 186.341 209.21 186.902 208.651 187.373C203.697 191.581 198.041 193.818 191.464 193.463C190.715 193.418 189.946 193.428 189.262 192.875Z" fill="#98958B"/>
<path d="M173.318 164.018C178.975 161.192 184.502 158.256 188.705 153.344C189.03 153.938 188.739 154.252 188.467 154.562C186.632 156.765 184.495 158.633 182.051 160.127C179.303 161.805 176.42 163.162 173.318 164.018Z" fill="#98958B"/>
<path d="M253.079 95.4888C242.764 99.3866 241.47 101.557 236.59 105.123C236.622 104.661 236.925 104.355 237.22 104.061C237.503 103.759 237.824 103.501 238.142 103.223C241.62 100.12 245.369 97.4688 249.846 95.9916C250.892 95.64 251.97 95.4147 253.079 95.4888Z" fill="#98958B"/>
<path d="M124.844 145.958C121.635 142.214 119.537 130.017 120.828 126.061C121.148 132.908 122.017 139.641 124.844 145.958Z" fill="#98958B"/>
<path d="M187.54 65.1453C191.721 59.75 197.101 56.0171 203.598 53.8896C200.686 55.4338 197.758 56.9501 195.093 58.9291C192.463 60.8816 190.032 63.0437 187.54 65.1453Z" fill="#98958B"/>
<path d="M249.358 72.7494C247.3 76.4411 244.858 79.8435 242.015 82.9795C240.699 84.4229 239.406 85.8826 238.005 87.249C237.38 87.8636 236.74 88.5721 235.354 88.5963C238.318 86.1703 240.447 83.4305 242.887 80.9624C245.352 78.4597 247.147 75.4319 249.358 72.7494Z" fill="#98958B"/>
<path d="M148.79 68.0756C151.176 61.0797 155.752 55.7386 161.44 51.2527C156.302 56.1621 151.983 61.7028 148.79 68.0756Z" fill="#98958B"/>
<path d="M143.179 126.121C141.178 118.344 140.169 110.437 140.184 102.405C140.777 106.344 140.953 110.333 141.467 114.285C141.985 118.256 142.696 122.174 143.179 126.121Z" fill="#98958B"/>
<path d="M150.678 119.589C151.641 126.337 151.709 133.075 149.617 139.828C149.085 139.33 149.281 138.931 149.361 138.573C150.796 132.43 151.009 126.201 150.606 119.937C150.605 119.815 150.656 119.695 150.678 119.589Z" fill="#98958B"/>
<path d="M145.314 140.25C146.692 140.827 147.531 141.698 148.259 142.629C151.493 146.754 153.568 151.464 155.391 156.653C154.566 156.226 154.468 155.654 154.274 155.17C152.916 151.921 151.41 148.758 149.538 145.77C148.561 144.211 147.619 142.627 146.193 141.409C145.894 141.146 145.685 140.755 145.314 140.25Z" fill="#98958B"/>
<path d="M164.541 66.6372C162.479 74.1564 160.568 81.7308 156.997 88.7369C159.868 81.4954 161.93 73.9762 164.541 66.6372Z" fill="#98958B"/>
<path d="M142.25 153.595C138.628 150.459 135.646 140.931 136.614 135.619C137.038 136.907 136.861 137.891 137.04 138.815C137.25 139.865 137.353 140.944 137.572 141.982C137.772 142.973 138.051 143.95 138.338 144.916C138.625 145.882 138.952 146.841 139.326 147.782C139.73 148.778 140.19 149.745 140.666 150.689C141.113 151.577 141.612 152.415 142.25 153.595Z" fill="#98958B"/>
<path d="M182.377 192.146C176.525 192.407 168.359 185.797 166.65 181.624C175.003 190.394 174.261 188.968 182.377 192.146Z" fill="#98958B"/>
<path d="M200.807 154.662C202.209 153.783 203.704 153.679 205.045 153.155C206.379 152.643 207.705 152.091 208.949 151.411C210.257 150.689 211.53 149.944 212.834 149.203C214.038 148.53 215.164 147.697 216.598 147.117C212.596 151.131 204.112 155.233 200.807 154.662Z" fill="#98958B"/>
<path d="M183.753 131.537C177.059 130.734 171.164 132.525 165.765 136.383C168.82 132.236 180.671 128.888 183.753 131.537Z" fill="#98958B"/>
<path d="M200.949 59.8152C205.577 56.14 210.602 53.3002 216.617 52.5647C214.027 53.7999 211.21 54.4752 208.623 55.7301C206.02 57.0081 203.537 58.5093 200.949 59.8152Z" fill="#98958B"/>
<path d="M234.614 173.61C228.053 173.769 221.636 174.705 215.493 177.239C218.457 174.691 227.969 172.86 234.614 173.61Z" fill="#98958B"/>
<path d="M175.545 170.62C174.702 170.439 173.914 170.818 173.117 170.964C170.75 171.37 168.385 171.429 166.02 170.951C165.789 170.91 165.547 170.86 165.33 170.775C165.232 170.741 165.153 170.633 164.98 170.51C166.587 170.59 168.118 170.755 169.649 170.746C173.045 170.723 176.222 169.712 179.326 168.46C180.541 167.968 181.738 167.428 182.938 166.908C183.24 166.775 183.502 166.527 183.871 166.667C183.842 167.149 183.39 167.175 183.099 167.316C180.996 168.428 178.829 169.408 176.544 170.114C176.16 170.24 175.716 170.255 175.458 170.645L175.545 170.62Z" fill="#98958B"/>
<path d="M191.815 64.6878C195.821 60.3986 200.468 57.0654 206.109 55.2163C203.645 56.7141 201.032 57.9329 198.681 59.6144C196.355 61.2613 194.184 63.1049 191.815 64.6878Z" fill="#98958B"/>
<path d="M274.772 208.664C269.102 210.823 263.225 210.824 257.262 210.262C257.68 210.211 258.09 210.12 258.495 210.111C261.755 210.061 265.033 210.058 268.293 209.713C270.494 209.468 272.61 208.902 274.772 208.664Z" fill="#98958B"/>
<path d="M293.982 136.323C288.257 137.384 282.924 139.556 277.475 142.113C279.533 139.792 288.763 136.547 293.982 136.323Z" fill="#98958B"/>
<path d="M251.332 78.532C249.352 83.3879 245.906 87.0332 241.808 90.1304C245.231 86.4688 248.581 82.7384 251.332 78.532Z" fill="#98958B"/>
<path d="M141.171 137.752C142.391 138.233 143.104 139.258 143.842 140.248C146.182 143.36 147.665 146.922 149.378 150.527C148.72 150.477 148.667 149.989 148.526 149.698C147.502 147.813 146.519 145.921 145.535 144.029C144.354 141.754 142.884 139.692 141.171 137.752Z" fill="#98958B"/>
<path d="M244.42 85.2884C246.663 81.5547 249.596 78.2916 251.643 74.4189C250.398 78.8242 247.364 82.0335 244.42 85.2884Z" fill="#98958B"/>
<path d="M263.966 165.417C268.078 165.779 271.754 165.017 275.344 163.692C272.75 165.913 266.341 166.959 263.966 165.417Z" fill="#98958B"/>
<path d="M205.935 167.061C204.06 170.813 200.908 173.21 197.4 175.252C200.37 172.622 203.58 170.266 205.935 167.061Z" fill="#98958B"/>
<path d="M255.533 246.459C252.296 244.394 248.841 243.007 245.606 241.185C246.865 241.366 247.986 241.864 249.11 242.382C250.234 242.9 251.464 243.268 252.469 243.979C253.497 244.706 254.98 244.889 255.533 246.459Z" fill="#98958B"/>
<path d="M244.706 96.1508C241.377 97.9896 238.656 100.536 235.806 102.922C238.188 99.8755 240.989 97.386 244.706 96.1508Z" fill="#98958B"/>
<path d="M175.455 170.626C176.369 170.926 177.171 170.453 178.002 170.21C179.4 169.777 180.736 169.163 182.082 168.608C179.361 170.738 176.147 171.41 172.816 171.757C173.561 170.95 174.827 171.464 175.545 170.62L175.455 170.626Z" fill="#98958B"/>
<path d="M188.935 199.854C187.408 197.872 185.787 193.917 185.722 192.294C185.77 192.276 185.826 192.246 185.885 192.236C185.936 192.237 186.006 192.235 186.041 192.26C186.117 192.348 186.205 192.445 186.241 192.54C187.095 194.86 187.938 197.172 188.935 199.854Z" fill="#98958B"/>
<path d="M122.473 128.022C122.723 130.903 123.009 133.757 123.345 136.613C122.45 133.812 122.062 130.955 122.473 128.022Z" fill="#98958B"/>
<path d="M112.971 231.101C113.199 232.25 112.704 232.679 112.365 233.133C111.121 234.818 110.159 236.668 109.096 238.464C108.623 239.255 108.531 240.144 108.44 241.032C107.6 249.469 106.027 257.767 103.486 265.866C103.262 266.574 103.231 267.401 102.351 268.131C104.98 258.291 107.024 248.593 107.682 238.624C107.137 238.048 106.631 237.465 106.093 236.928C105.569 236.418 104.78 236.137 104.443 235.119C105.843 235.468 106.543 236.536 107.772 237.076C108.066 233.159 108.07 229.331 107.886 225.526C107.05 224.675 106.219 223.914 105.303 223.248C104.411 222.599 103.207 222.389 102.51 221.341C103.727 221.214 103.727 221.214 105.202 222.24C106.022 222.821 106.842 223.401 107.823 224.096C107.694 220.971 107.422 218.074 106.983 215.216C105.314 213.827 103.254 213.357 101.47 212.303C103.421 212.02 104.917 213.286 106.624 213.887C106.867 213.054 106.493 212.529 105.838 212.083C104.325 211.012 102.774 210.019 100.992 209.451C100.498 209.292 100.025 209.079 99.481 208.868C100.636 208.142 100.807 208.194 106.079 210.884C106.283 210.474 106.102 210.068 106.023 209.666C104.997 204.624 103.5 199.734 101.508 194.98C101.008 193.777 100.207 193.071 99.0306 192.603C96.8606 191.726 94.5873 191.313 92.3039 190.841C91.6833 190.714 90.991 190.762 90.464 190.233C92.1788 189.696 94.6777 190.181 100.069 192.09C98.4008 188.569 96.3504 185.368 93.9999 182.37C93.2721 181.439 92.3918 180.625 91.6524 179.686C91.1629 179.08 90.5614 178.828 89.834 178.729C87.8047 178.437 85.7872 178.569 83.7716 178.772C82.5435 178.891 81.3201 178.979 80.0949 178.996C81.7979 178.034 83.6735 177.784 89.4857 177.702C89.5134 177.271 89.1362 177.143 88.8936 176.971C86.5688 175.309 84.2977 173.546 81.8666 172.034C79.015 170.259 75.7938 169.349 72.5664 168.521C72.0362 168.388 71.5022 168.53 70.9731 168.641C68.9682 169.025 67.1083 169.841 65.2932 170.741C64.1346 171.325 62.961 171.881 61.5643 172.556C62.9158 170.965 65.0781 169.722 69.2107 168.07C68.9896 167.55 68.4904 167.716 68.1267 167.667C63.497 167.008 58.8508 167.083 54.2058 167.401C53.2932 167.466 52.464 167.781 51.6897 168.238C49.8574 169.334 48.0135 170.421 45.9056 171.685C47.158 169.989 48.9727 169.384 50.0568 167.95C47.2137 168.832 45.0946 170.921 42.5215 172.254C43.8384 170.638 45.6082 169.533 47.1791 168.097C46.4984 168.153 45.811 168.169 45.1486 168.272C43.1384 168.566 41.1465 168.907 39.1328 169.181C37.7455 169.378 36.4695 169.809 35.3133 170.586C34.3736 171.203 33.4291 171.852 32.4745 172.442C31.9512 172.765 31.4978 173.259 30.6954 173.315C31.6338 172.038 33.0903 171.474 34.0918 170.328C32.3555 170.087 27.854 170.889 25.3957 171.766C22.6401 172.746 19.9741 173.892 17.2802 175.054C18.887 173.175 21.281 172.633 23.3751 171.584C18.4556 171.605 13.5308 172.245 8.76497 170.554C13.7459 171.426 18.7282 171.121 24.0746 170.571C21.4671 169.333 18.9431 168.76 16.8453 167.12C17.3136 166.654 17.6471 166.942 17.9835 167.128C20.0757 168.262 22.2314 169.232 24.4947 170.002C25.2376 170.25 25.9834 170.397 26.7641 170.273C29.3626 169.859 31.9414 169.448 34.54 169.033C34.6978 169.006 34.8617 168.897 35.2393 168.731C32.7932 167.191 30.1277 166.206 28.3842 163.967C28.4577 163.863 28.5231 163.77 28.5967 163.666C29.1857 164.083 29.7862 164.508 30.3753 164.925C31.9807 166.061 33.5371 167.266 35.3482 168.062C35.8409 168.272 36.3375 168.624 36.8455 168.567C38.5273 168.371 40.2273 168.222 42.1806 167.715C39.168 166.363 36.4354 165.105 34.1681 163.068C35.4023 163.577 36.6317 164.118 37.7371 164.882C39.1081 165.835 40.6407 166.486 42.152 167.192C43.187 167.664 44.1919 167.665 45.4218 167.2C42.1906 165.52 38.9673 164.124 35.9273 161.782C37.0843 161.959 37.7835 162.367 38.4942 162.784C40.8126 164.112 43.1393 165.429 45.5947 166.491C46.2968 166.797 47.0218 167.119 47.8208 167.043C50.5402 166.801 53.2678 166.547 56.3489 166.283C54.7137 165.092 53.2195 164.19 51.9561 163.036C50.7192 161.918 49.251 160.932 48.5454 159.063C50.1472 159.763 50.9868 161.051 52.0504 162.046C53.5963 163.486 55.3316 164.61 57.0539 165.777C57.5933 166.141 58.2684 166.29 58.9246 166.269C62.6215 166.163 66.2985 166.356 70.2209 167.034C67.6906 164.291 64.9633 161.997 63.8787 158.508C64.5434 158.181 64.636 158.663 64.7737 158.933C66.0261 161.328 67.7196 163.392 69.6015 165.313C70.8192 166.556 72.1445 167.598 73.9357 167.982C75.3796 168.293 76.7687 168.877 78.1722 169.368C78.5066 169.483 78.8151 169.684 79.1893 169.498C77.2254 163.186 77.0202 161.81 77.8103 160.081C78.3304 160.155 78.2286 160.568 78.2316 160.882C78.2821 163.726 79.0079 166.423 79.9193 169.079C80.166 169.808 80.5761 170.306 81.2291 170.681C82.9292 171.659 84.7158 172.49 86.3155 173.83C86.6726 173.129 86.4332 172.561 86.3502 172.017C85.9457 169.062 86.4297 166.198 87.289 163.391C87.4057 163.006 87.5469 162.586 88.0231 162.403C88.2847 163.16 87.878 163.808 87.7181 164.475C87.0008 167.399 86.7853 170.349 87.1456 173.343C87.2635 174.327 87.6285 175.036 88.7187 175.357C88.637 171.382 88.6639 167.449 90.4531 163.672C91.1562 164.221 90.7851 164.721 90.6534 165.079C89.6685 167.744 89.4144 170.528 89.3561 173.33C89.3363 174.043 89.4579 174.753 89.489 175.469C89.5313 176.487 90.0079 177.136 91.001 177.423C90.8424 169.857 91.3214 166.609 92.8538 165.006C93.1284 165.721 92.7938 166.316 92.6123 166.915C91.6061 170.346 91.5443 173.838 91.7327 177.368C91.7652 178.033 91.9257 178.614 92.4133 179.15C94.5749 181.46 96.4479 183.981 98.1965 186.605C98.2494 186.677 98.4024 186.681 98.6199 186.766C99.325 182.585 100.699 178.635 102.722 174.918C102.937 174.516 103.131 174.046 103.661 173.885C104.1 174.195 103.817 174.497 103.644 174.791C101.908 177.93 100.661 181.26 99.772 184.721C99.5343 185.645 99.4448 186.604 99.2894 187.534C99.2011 188.026 99.2754 188.46 99.5339 188.903C100.936 191.404 102.121 193.992 103.283 196.808C104.419 195.497 104.633 193.846 105.521 192.567C106.441 191.243 107.079 189.753 108.045 188.461C109.309 186.773 110.465 185.58 111.57 185.096C110.923 186.354 110.104 187.266 109.344 188.218C107.116 190.975 105.448 194.041 104.032 197.268C103.843 197.707 103.791 198.172 103.946 198.663C104.519 200.352 105.053 202.047 105.603 203.719C106.167 203.754 106.198 203.343 106.297 203.031C107.345 199.786 108.847 196.758 110.693 193.905C111.013 193.403 111.221 192.84 111.507 192.314C111.962 191.475 112.13 191.334 113.204 190.846C111.961 193.068 110.753 195.265 109.519 197.425C108.204 199.7 107.237 202.119 106.391 204.588C106.046 205.592 106.153 206.517 106.815 207.713C108.498 202.37 110.886 197.698 113.838 193.305C113.977 193.109 114.128 192.921 114.46 192.965C114.792 193.183 114.53 193.43 114.397 193.666C113.229 195.734 112.018 197.789 110.884 199.881C109.337 202.704 108.14 205.67 107.26 208.774C107.086 209.413 107.064 210.056 107.187 210.715C107.699 213.469 108.152 216.234 108.421 219.284C109.473 218.139 110.175 217.024 110.82 215.868C111.453 214.704 112.071 213.512 113.003 212.612C113.963 211.696 114.503 210.345 115.844 209.821C115.462 210.851 114.823 211.681 114.16 212.495C112.403 214.684 110.924 217.069 109.329 219.372C108.474 220.604 108.543 221.953 108.856 223.543C110.976 219.861 112.836 216.203 116.07 213.274C115.995 214.434 115.402 215.124 114.823 215.772C112.433 218.414 110.893 221.57 109.14 224.611C108.942 224.939 108.898 225.272 108.899 225.637C108.92 229.257 108.933 232.889 108.983 236.615C110.315 234.855 111.566 233.087 112.971 231.101Z" fill="#98958B"/>
<path d="M36.3565 356.35C37.0061 355.579 37.7606 355.125 38.5037 354.663C46.5485 349.54 54.7542 344.704 63.3942 340.626C64.7269 339.992 65.6264 338.843 66.4702 337.724C68.3081 335.298 70.0536 332.807 71.7299 330.267C72.6317 328.894 73.306 327.378 74.1929 325.978C73.6867 328.653 72.2589 330.866 70.6994 333.021C69.1643 335.142 67.8372 337.409 65.9441 339.276C68.4574 338.541 70.7988 337.633 72.2634 335.22C73.2546 333.599 74.7459 332.349 75.8227 330.754C77.8442 327.799 79.5986 324.707 81.1682 321.485C81.3931 321.02 81.6146 320.535 82.4249 320.051C79.6142 326.399 76.363 332.072 71.2054 336.985C72.6649 336.735 73.6736 336.461 74.4122 335.735C75.2113 334.949 76.0566 334.195 76.6921 333.223C77.7492 331.631 78.8641 330.08 80.002 328.546C81.663 326.272 82.8097 323.721 84.0996 321.236C84.8336 319.832 85.2822 318.243 86.5338 317.135C83.882 323.7 80.5771 329.889 75.8527 335.316C76.3881 335.123 76.9153 334.941 77.4391 334.74C80.0614 333.753 82.6471 332.671 85.3209 331.807C87.7649 331.023 89.5258 329.392 91.174 327.577C93.8305 324.655 96.0331 321.396 98.282 318.168C99.8887 315.873 101.245 313.418 102.604 310.983C103.257 309.816 104.076 308.731 104.768 307.557C104.357 309.78 103.085 311.601 101.973 313.466C100.824 315.409 99.8019 317.441 98.4168 319.252C97.0726 321.004 95.905 322.899 94.5112 324.6C93.0813 326.327 91.7472 328.138 90.2568 329.926C91.4737 329.505 92.6871 329.064 93.904 328.642C96.0406 327.901 98.1535 327.021 100.329 326.446C103.358 325.643 105.846 323.989 108.212 322.041C113.33 317.845 117.372 312.697 120.898 307.15C121.904 305.557 122.918 303.952 123.952 302.344C124.05 303.088 123.765 303.736 123.391 304.338C121.855 306.753 120.432 309.23 118.784 311.582C115.588 316.149 111.806 320.146 107.458 323.621C107.289 323.762 107.013 323.809 107.008 324.257C108.434 323.809 109.838 323.417 111.221 322.957C115.858 321.401 120.479 319.818 125.123 318.252C126.629 317.74 127.844 316.832 128.966 315.736C132.064 312.729 134.59 309.282 137.017 305.73C138.666 303.326 140.341 300.959 141.624 297.897C141.773 299.181 141.266 299.897 140.947 300.642C139.817 303.17 138.116 305.329 136.565 307.594C134.532 310.54 132.472 313.451 129.791 315.869C129.658 315.983 129.609 316.174 129.515 316.333C131.144 316.185 132.048 315.716 133.432 314.373C137.173 310.728 140.083 306.443 142.967 302.123C143.655 301.102 144.088 299.901 144.649 298.79C144.803 298.5 144.857 298.105 145.286 298.062C145.06 300.952 140.074 308.465 134.337 314.563C134.808 314.705 135.141 314.456 135.471 314.308C139.387 312.693 143.276 311.043 147.218 309.464C148.548 308.932 149.6 308.082 150.466 307.03C152.895 304.087 155.013 300.923 156.583 297.406C156.867 296.759 157.365 296.227 157.498 295.108C157.724 296.602 157.407 297.245 156.245 299.646C155.541 301.107 154.552 302.382 153.902 303.864C153.265 305.303 151.886 306.199 150.902 307.859C152.312 307.262 153.404 306.822 154.489 306.342C156.508 305.448 158.501 304.518 160.52 303.624C161.688 303.099 162.606 302.292 163.373 301.258C164.983 299.104 166.277 296.761 167.494 294.381C167.684 294.013 167.841 293.621 168.251 293.409C168.308 294.749 168.067 295.237 164.059 301.709C164.572 301.743 164.91 301.461 165.284 301.276C168.118 299.867 170.757 298.146 173.355 296.361C173.891 295.996 174.386 295.566 175.294 295.359C174.213 296.691 172.965 297.524 171.783 298.386C170.54 299.31 169.218 300.125 167.881 300.912C166.564 301.696 165.194 302.408 163.856 303.367C164.509 303.327 165.161 303.286 165.826 303.253C167.316 303.181 168.799 303.191 170.292 303.433C170.909 303.54 171.617 303.521 172.058 304.145C171.799 304.586 171.437 304.312 171.14 304.292C169.894 304.191 168.651 303.988 167.404 303.937C164.068 303.778 160.89 304.302 157.908 305.919C156.553 306.658 155.081 307.194 153.681 307.85C153.324 308.013 152.848 308.023 152.655 308.615C154.637 308.509 156.576 308.512 158.514 308.687C160.648 308.88 162.758 309.229 164.834 309.848C165.464 310.035 166.1 310.19 166.479 310.805C166.08 311.198 165.715 310.905 165.321 310.8C160.928 309.563 156.452 309.03 151.887 309.406C150.998 309.487 150.095 309.611 149.245 309.858C148.279 310.146 147.371 310.595 146.458 311.249C146.808 311.22 147.178 311.187 147.528 311.157C152.428 310.724 157.295 310.875 162.103 311.92C163.125 312.141 163.137 312.149 164.039 312.857C163.221 313.058 162.55 312.757 161.89 312.636C156.343 311.536 150.787 311.279 145.169 312.018C143.908 312.183 142.725 312.507 141.561 313.001C139.138 314.025 136.693 314.982 134.275 315.974C133.973 316.107 133.682 316.248 133.447 316.654C134.071 316.679 134.689 316.736 135.309 316.741C141.568 316.837 147.605 318.006 153.452 320.202C154.33 320.528 155.143 320.948 155.775 321.793C155.257 321.618 154.727 321.486 154.215 321.279C146.943 318.231 139.331 317.23 131.508 317.362C130.911 317.372 130.326 317.513 129.763 317.721C127.692 318.492 125.618 319.243 123.488 320.024C123.738 320.651 124.296 320.474 124.699 320.517C130.496 321.29 136.132 322.731 141.563 324.927C143.492 325.703 145.417 326.511 147.097 327.786C147.401 328.018 147.872 328.161 147.79 328.693C147.628 328.873 147.462 328.789 147.323 328.691C143.597 326.02 139.332 324.528 135.007 323.218C131.419 322.117 127.741 321.387 124.039 320.812C122.382 320.558 120.876 320.776 119.426 321.552C119.612 322.048 120.06 321.88 120.358 321.9C128.319 322.627 135.877 324.855 143.135 328.119C144.158 328.584 145.126 329.199 146.104 329.753C146.452 329.947 146.79 330.204 146.874 330.869C146.071 330.509 145.363 330.286 144.741 329.915C140.892 327.59 136.647 326.216 132.385 324.915C127.94 323.555 123.365 322.745 118.727 322.27C117.818 322.182 116.942 322.221 116.103 322.598C116.117 322.798 116.143 323.007 116.168 323.216C115.182 323.09 114.254 323.178 113.319 323.47C109.52 324.699 105.695 325.892 101.904 327.11C101.654 327.193 101.344 327.216 101.115 327.661C110.702 328.517 119.953 330.383 128.534 334.791C130.481 335.788 132.459 336.789 134.163 338.202C134.447 338.438 134.905 338.623 134.816 339.115C134.646 339.307 134.459 339.278 134.32 339.18C127.702 334.375 120.242 331.593 112.311 329.916C108.405 329.093 104.473 328.477 100.473 328.177C99.568 328.109 98.6833 328.159 97.831 328.457C94.238 329.762 90.6566 331.076 87.0868 332.398C86.7813 332.511 86.3869 332.578 86.1394 333.149C90.2705 333.385 94.2786 334.089 98.1979 335.164C102.074 336.226 105.985 337.191 109.47 339.345C109.212 339.856 108.943 339.648 108.699 339.527C103.47 337.144 97.9716 335.68 92.3579 334.55C90.0235 334.077 87.6392 333.846 85.2684 333.694C84.1793 333.616 83.1422 333.784 82.1292 334.211C80.7272 334.796 79.2919 335.306 77.8904 336.013C80.1211 336.828 82.5778 336.712 84.6019 338.04C81.431 337.721 78.3913 336.211 75.1035 336.987C76.7905 337.591 78.6647 337.392 80.3648 338.37C79.8049 338.598 79.4079 338.473 79.0014 338.411C78.3563 338.318 77.7029 338.237 77.0625 338.113C74.5915 337.613 72.3153 338.013 69.9528 338.975C61.3087 342.496 53.2352 347.096 45.2098 351.799C43.1067 353.032 40.9805 354.249 38.8509 355.446C38.0747 355.833 37.3297 356.224 36.3565 356.35Z" fill="#98958B"/>
<path d="M117.167 322.882C126.87 324.601 136.309 326.375 144.634 332.075C143.942 332.538 143.679 332.248 143.402 332.052C138.904 328.904 133.823 327.146 128.573 325.771C125.066 324.849 121.539 324.052 117.947 323.469C117.709 323.439 117.469 323.46 117.167 322.882Z" fill="#98958B"/>
</g>
</svg>
